<svg width="11" height="14" viewBox="0 0 11 14" fill="none" xmlns="http://www.w3.org/2000/svg">
<path d="M0.175039 1.025L0.175038 13.175C0.175424 13.298 0.209352 13.4186 0.273169 13.5238C0.336985 13.6289 0.428275 13.7147 0.537211 13.7718C0.646148 13.829 0.768606 13.8553 0.891404 13.848C1.0142 13.8408 1.13269 13.8001 1.23411 13.7305L10.0091 7.65552C10.3729 7.40375 10.3729 6.7976 10.0091 6.54515L1.23411 0.470146C1.1329 0.399828 1.01435 0.358592 0.891352 0.350918C0.76835 0.343244 0.645596 0.369425 0.536429 0.426618C0.427262 0.483811 0.335855 0.569827 0.272142 0.675322C0.208428 0.780817 0.174845 0.901755 0.175039 1.025Z" fill="#0D84D4"/>
</svg>
