<svg width="32" height="30" viewBox="0 0 32 30" fill="none" xmlns="http://www.w3.org/2000/svg">
<path d="M31.3603 22.3156L20.1494 2.89733C18.3182 -0.310503 13.6876 -0.310503 11.863 2.89733L0.645471 22.3156C-1.18569 25.5234 1.09338 29.5085 4.78865 29.5085H27.1776C30.8729 29.5085 33.1915 25.4839 31.3603 22.3156ZM15.9996 25.2007C15.0247 25.2007 14.2145 24.3905 14.2145 23.4156C14.2145 22.4407 15.0247 21.6305 15.9996 21.6305C16.9745 21.6305 17.7846 22.4407 17.7451 23.4617C17.7912 24.3905 16.9349 25.2007 15.9996 25.2007ZM17.6266 13.6604C17.5475 15.0436 17.4619 16.4203 17.3828 17.8035C17.3433 18.2514 17.3433 18.6598 17.3433 19.1012C17.3038 19.8323 16.7307 20.3988 15.9996 20.3988C15.2684 20.3988 14.702 19.8718 14.6559 19.1407C14.5373 16.9868 14.4121 14.8724 14.2936 12.7184C14.2541 12.152 14.2145 11.5789 14.1684 11.0124C14.1684 10.0771 14.6954 9.30641 15.5517 9.06269C16.408 8.85849 17.2577 9.26688 17.6266 10.0771C17.7517 10.3603 17.7912 10.6436 17.7912 10.9729C17.7517 11.8753 17.6661 12.7711 17.6266 13.6604Z" fill="#F6B500"/>
</svg>
