<svg width="22" height="19" viewBox="0 0 22 19" fill="none" xmlns="http://www.w3.org/2000/svg">
<path d="M1.68874 8.11247C1.68874 8.11247 11.0867 4.11425 14.3461 2.70638C15.5956 2.14328 19.8328 0.341198 19.8328 0.341198C19.8328 0.341198 21.7885 -0.447144 21.6255 1.46748C21.5711 2.2559 21.1366 5.01521 20.702 7.99985C20.0501 12.2234 19.3439 16.841 19.3439 16.841C19.3439 16.841 19.2352 18.1363 18.3118 18.3615C17.3883 18.5868 15.8672 17.5732 15.5956 17.3479C15.3782 17.179 11.5213 14.6448 10.1089 13.4059C9.72861 13.0681 9.29404 12.3924 10.1632 11.6039C12.1189 9.74558 14.4547 7.43675 15.8672 5.97261C16.5191 5.29681 17.1709 3.72004 14.4547 5.63467C10.5978 8.39406 6.79516 10.9845 6.79516 10.9845C6.79516 10.9845 5.92595 11.5476 4.29627 11.0408C2.6665 10.534 0.765176 9.8582 0.765176 9.8582C0.765176 9.8582 -0.538514 9.01351 1.68874 8.11247Z" fill="#0D84D4"/>
</svg>
