<svg width="50" height="50" viewBox="0 0 50 50" fill="none" xmlns="http://www.w3.org/2000/svg">
<path d="M12.5 36.5002L14.2937 29.8368C12.8471 27.241 12.3875 24.212 12.9993 21.3055C13.611 18.3991 15.253 15.8101 17.624 14.0138C19.9949 12.2174 22.9359 11.3341 25.907 11.5261C28.8782 11.718 31.6804 12.9722 33.7993 15.0585C35.9182 17.1449 37.2117 19.9234 37.4426 22.8843C37.6734 25.8452 36.826 28.7898 35.0559 31.1778C33.2858 33.5658 30.7117 35.237 27.806 35.8847C24.9003 36.5324 21.8578 36.1132 19.2369 34.7041L12.5 36.5002ZM19.5618 32.2106L19.9784 32.4571C21.8768 33.5794 24.094 34.0439 26.2846 33.778C28.4753 33.5122 30.5162 32.531 32.0894 30.9874C33.6626 29.4438 34.6797 27.4245 34.9821 25.2441C35.2846 23.0637 34.8555 20.8448 33.7616 18.9331C32.6678 17.0214 30.9707 15.5243 28.9347 14.6751C26.8988 13.8259 24.6384 13.6723 22.5059 14.2383C20.3733 14.8043 18.4883 16.058 17.1447 17.8041C15.8011 19.5502 15.0743 21.6907 15.0776 23.8918C15.0758 25.7169 15.5818 27.5067 16.5393 29.062L16.8006 29.4916L15.7979 33.2108L19.5618 32.2106Z" fill="#25C900"/>
<path fill-rule="evenodd" clip-rule="evenodd" d="M29.6742 25.6027C29.43 25.4062 29.144 25.2679 28.8381 25.1983C28.5321 25.1287 28.2143 25.1297 27.9088 25.2012C27.4498 25.3914 27.1532 26.1099 26.8566 26.4691C26.794 26.5552 26.7021 26.6156 26.5981 26.639C26.4941 26.6623 26.3851 26.647 26.2916 26.5959C24.6112 25.9394 23.2026 24.7354 22.2947 23.1796C22.2172 23.0825 22.1806 22.9593 22.1924 22.8358C22.2043 22.7123 22.2637 22.5982 22.3582 22.5175C22.689 22.1909 22.9319 21.7863 23.0644 21.3412C23.0938 20.8503 22.9811 20.3612 22.7396 19.9324C22.5529 19.3313 22.1976 18.796 21.7156 18.3898C21.467 18.2783 21.1914 18.2409 20.922 18.2822C20.6526 18.3234 20.4009 18.4415 20.1973 18.6223C19.8439 18.9265 19.5633 19.3059 19.3763 19.7325C19.1893 20.1592 19.1007 20.6222 19.1169 21.0876C19.118 21.349 19.1512 21.6092 19.2157 21.8624C19.3797 22.471 19.6319 23.0523 19.9643 23.5882C20.2041 23.9986 20.4658 24.396 20.7481 24.7786C21.6659 26.0352 22.8194 27.1021 24.1449 27.9201C24.81 28.3358 25.5208 28.6738 26.2634 28.9274C27.0348 29.2762 27.8864 29.41 28.728 29.3148C29.2074 29.2424 29.6617 29.0536 30.0508 28.7649C30.44 28.4763 30.752 28.0967 30.9595 27.6595C31.0814 27.3954 31.1184 27.1001 31.0654 26.8142C30.9383 26.2296 30.1544 25.8845 29.6742 25.6027Z" fill="#25C900"/>
</svg>
