<svg width="11" height="14" viewBox="0 0 11 14" fill="none" xmlns="http://www.w3.org/2000/svg">
<path d="M10.6667 1.00006L10.6667 13.0001C10.6664 13.1216 10.6328 13.2406 10.5698 13.3445C10.5068 13.4484 10.4166 13.5331 10.309 13.5895C10.2014 13.646 10.0805 13.672 9.95922 13.6648C9.83793 13.6576 9.72091 13.6175 9.62074 13.5487L0.954071 7.54872C0.594737 7.30006 0.594737 6.70139 0.954071 6.45206L9.62074 0.452057C9.7207 0.382606 9.83778 0.341879 9.95927 0.3343C10.0808 0.326721 10.202 0.352579 10.3098 0.409066C10.4176 0.465553 10.5079 0.550507 10.5708 0.654699C10.6338 0.758891 10.6669 0.878336 10.6667 1.00006Z" fill="#0D84D4"/>
</svg>
