<?xml version="1.0" encoding="utf-8"?><svg xmlns="http://www.w3.org/2000/svg" xmlns:xlink="http://www.w3.org/1999/xlink"><symbol viewBox="0 0 14 14" id="Mark" xmlns="http://www.w3.org/2000/svg">
    <circle cx="7" cy="7" r="7" fill-opacity="0.24"/>
    <circle cx="7" cy="7" r="3"/>
</symbol><symbol viewBox="0 0 16 10" id="arrow" xmlns="http://www.w3.org/2000/svg">
    <path d="M7.11323 9.2309L0.324654 2.00808C-0.107404 1.54862 -0.107404 0.803689 0.324655 0.344454C0.756329 -0.114819 1.45646 -0.114819 1.8881 0.344454L7.89495 6.73553L13.9016 0.34464C14.3334 -0.114632 15.0335 -0.114632 15.4652 0.34464C15.897 0.803913 15.897 1.54881 15.4652 2.00827L8.6765 9.23108C8.46056 9.46072 8.17784 9.57541 7.89498 9.57541C7.61199 9.57541 7.32906 9.4605 7.11323 9.2309Z"/>
</symbol><symbol viewBox="0 0 32 34" id="busket" xmlns="http://www.w3.org/2000/svg">
    <path fill-rule="evenodd" clip-rule="evenodd" d="M4.65214 2.24951H0V0.749512H4.65214C6.00406 0.749512 7.15546 1.73215 7.36796 3.06726L7.99688 7.01876H29.7121C30.8545 7.01876 31.6906 8.09552 31.4076 9.20228L29.5067 16.6363C29.0823 18.2962 27.5869 19.4573 25.8736 19.4573H9.9766L10.3874 22.0383C10.484 22.6451 11.0073 23.0918 11.6218 23.0918H28.203V24.5918H11.6218C10.2699 24.5918 9.11852 23.6091 8.90602 22.274L5.8866 3.30303C5.79002 2.69617 5.26665 2.24951 4.65214 2.24951ZM9.73786 17.9573H25.8736C26.9016 17.9573 27.7988 17.2607 28.0535 16.2647L29.9543 8.83069C29.9948 8.67258 29.8753 8.51876 29.7121 8.51876H8.23562L9.73786 17.9573Z"/>
    <path fill-rule="evenodd" clip-rule="evenodd" d="M13.5695 31.8257C14.3183 31.8257 15.0189 31.1798 15.0189 30.2655C15.0189 29.3512 14.3183 28.7053 13.5695 28.7053C12.8207 28.7053 12.1201 29.3512 12.1201 30.2655C12.1201 31.1798 12.8207 31.8257 13.5695 31.8257ZM13.5695 33.3257C15.1984 33.3257 16.5189 31.9556 16.5189 30.2655C16.5189 28.5754 15.1984 27.2053 13.5695 27.2053C11.9406 27.2053 10.6201 28.5754 10.6201 30.2655C10.6201 31.9556 11.9406 33.3257 13.5695 33.3257Z"/>
    <path fill-rule="evenodd" clip-rule="evenodd" d="M26.5466 31.8257C27.2954 31.8257 27.996 31.1798 27.996 30.2655C27.996 29.3512 27.2954 28.7053 26.5466 28.7053C25.7977 28.7053 25.0972 29.3512 25.0972 30.2655C25.0972 31.1798 25.7977 31.8257 26.5466 31.8257ZM26.5466 33.3257C28.1755 33.3257 29.496 31.9556 29.496 30.2655C29.496 28.5754 28.1755 27.2053 26.5466 27.2053C24.9177 27.2053 23.5972 28.5754 23.5972 30.2655C23.5972 31.9556 24.9177 33.3257 26.5466 33.3257Z"/>
</symbol><symbol viewBox="0 0 19 19" id="cart" xmlns="http://www.w3.org/2000/svg">
    <path d="M4.14005 4.42146H16.6916C17.3507 4.42146 17.8296 5.04797 17.6565 5.68396L16.9778 8.17874C16.6225 9.48483 15.4366 10.3912 14.0831 10.3912H5.24054M0 1H2.00252C2.97824 1 3.81154 1.70406 3.97445 2.66608L5.47496 11.5273C5.63787 12.4893 6.47118 13.1934 7.44689 13.1934H16.3759" stroke-width="1.5"/>
    <path d="M8.84137 16.6989C8.84137 17.1895 8.42828 17.619 7.87882 17.619C7.32936 17.619 6.91626 17.1895 6.91626 16.6989C6.91626 16.2084 7.32936 15.7788 7.87882 15.7788C8.42828 15.7788 8.84137 16.2084 8.84137 16.6989Z" stroke-width="1.5"/>
    <path d="M16.3768 16.6989C16.3768 17.1895 15.9637 17.619 15.4142 17.619C14.8648 17.619 14.4517 17.1895 14.4517 16.6989C14.4517 16.2084 14.8648 15.7788 15.4142 15.7788C15.9637 15.7788 16.3768 16.2084 16.3768 16.6989Z" stroke-width="1.5"/>
</symbol><symbol viewBox="0 0 16 16" id="clock" xmlns="http://www.w3.org/2000/svg">
    <circle cx="8" cy="8" r="7.5"/>
    <rect width="1" height="5" rx="0.5" transform="matrix(-1 0 0 1 8 4)"/>
    <rect width="1" height="4" rx="0.5" transform="matrix(-4.37114e-08 1 1 4.37114e-08 7 8)"/>
</symbol><symbol viewBox="0 0 18 13" id="email" xmlns="http://www.w3.org/2000/svg">
    <path d="M1 1L8.4 6.55C8.75556 6.81667 9.24444 6.81667 9.6 6.55L17 1"/>
    <rect x="0.5" y="0.5" width="17" height="12" rx="1.5"/>
</symbol><symbol viewBox="0 0 28 27" id="heart" xmlns="http://www.w3.org/2000/svg">
    <path d="M20.1004 0C17.7169 0 15.4856 1.07339 14 2.87184C12.5144 1.07333 10.2832 0 7.89957 0C3.54375 0 0 3.52462 0 7.85705C0 11.2495 2.03385 15.1734 6.04492 19.5198C9.13175 22.8646 12.4897 25.4544 13.4454 26.1685L13.9998 26.5828L14.5543 26.1686C15.5099 25.4545 18.868 22.8647 21.9549 19.52C25.9661 15.1736 28 11.2496 28 7.85705C28 3.52462 24.4562 0 20.1004 0ZM20.5948 18.2782C18.0558 21.0293 15.3242 23.2533 13.9998 24.2783C12.6755 23.2533 9.944 21.0293 7.40498 18.2781C3.76837 14.3375 1.84615 10.734 1.84615 7.85705C1.84615 4.53717 4.56172 1.83622 7.89957 1.83622C10.0961 1.83622 12.1243 3.02694 13.1927 4.94377L14 6.3923L14.8073 4.94377C15.8756 3.027 17.9038 1.83622 20.1004 1.83622C23.4383 1.83622 26.1538 4.53711 26.1538 7.85705C26.1538 10.7341 24.2316 14.3377 20.5948 18.2782Z"/>
</symbol><symbol viewBox="0 0 24 24" id="heart-line" xmlns="http://www.w3.org/2000/svg">
    <path d="M12.001 4.52853C14.35 2.42 17.98 2.49 20.2426 4.75736C22.5053 7.02472 22.583 10.637 20.4786 12.993L11.9999 21.485L3.52138 12.993C1.41705 10.637 1.49571 7.01901 3.75736 4.75736C6.02157 2.49315 9.64519 2.41687 12.001 4.52853ZM18.827 6.1701C17.3279 4.66794 14.9076 4.60701 13.337 6.01687L12.0019 7.21524L10.6661 6.01781C9.09098 4.60597 6.67506 4.66808 5.17157 6.17157C3.68183 7.66131 3.60704 10.0473 4.97993 11.6232L11.9999 18.6543L19.0201 11.6232C20.3935 10.0467 20.319 7.66525 18.827 6.1701Z"/>
</symbol><symbol viewBox="0 0 24 24" id="id-card-line" xmlns="http://www.w3.org/2000/svg">
    <path d="M3 6H21V18H3V6ZM2 4C1.44772 4 1 4.44772 1 5V19C1 19.5523 1.44772 20 2 20H22C22.5523 20 23 19.5523 23 19V5C23 4.44772 22.5523 4 22 4H2ZM13 8H19V10H13V8ZM18 12H13V14H18V12ZM10.5 10C10.5 11.3807 9.38071 12.5 8 12.5C6.61929 12.5 5.5 11.3807 5.5 10C5.5 8.61929 6.61929 7.5 8 7.5C9.38071 7.5 10.5 8.61929 10.5 10ZM8 13.5C6.067 13.5 4.5 15.067 4.5 17H11.5C11.5 15.067 9.933 13.5 8 13.5Z"/>
</symbol><symbol viewBox="0 0 18 2" id="line" xmlns="http://www.w3.org/2000/svg">
    <line x1="-8.74228e-08" y1="1" x2="18" y2="0.999998" stroke-width="2"/>
</symbol><symbol viewBox="0 0 17 25" id="location" xmlns="http://www.w3.org/2000/svg">
    <path d="M8.5 0C3.8131 0 0 3.85087 0 8.5842C0 10.1834 0.438647 11.7441 1.26881 13.0982L8.01616 24.0791C8.14541 24.2895 8.37311 24.4173 8.61801 24.4173C8.6199 24.4173 8.62174 24.4173 8.62363 24.4173C8.87065 24.4153 9.09883 24.2836 9.22571 24.0695L15.8011 12.9822C16.5854 11.6568 17 10.136 17 8.5842C17 3.85087 13.1869 0 8.5 0ZM14.5853 12.2477L8.60729 22.3278L2.47289 12.3444C1.78188 11.2174 1.40722 9.91714 1.40722 8.5842C1.40722 4.63976 4.59425 1.42116 8.5 1.42116C12.4058 1.42116 15.5881 4.63976 15.5881 8.5842C15.5881 9.87761 15.2381 11.1446 14.5853 12.2477Z"/>
    <path d="M8.49647 3.61743C5.89259 3.61743 3.77417 5.64587 3.77417 8.13915C3.77417 10.6165 5.85812 12.6609 8.49647 12.6609C11.1673 12.6609 13.2188 10.5893 13.2188 8.13915C13.2188 5.64587 11.1003 3.61743 8.49647 3.61743ZM8.49647 11.1637C6.75147 11.1637 5.33777 9.80551 5.33777 8.13915C5.33777 6.47697 6.76055 5.11462 8.49647 5.11462C10.2324 5.11462 11.6499 6.47697 11.6499 8.13915C11.6499 9.78119 10.2691 11.1637 8.49647 11.1637Z"/>
</symbol><symbol viewBox="0 0 11 17" id="locationdown" xmlns="http://www.w3.org/2000/svg">
    <path d="M5.5 0C2.4673 0 0 2.60071 0 5.7974C0 6.87745 0.283831 7.93148 0.820997 8.84592L5.18693 16.262C5.27056 16.4041 5.4179 16.4904 5.57636 16.4904C5.57758 16.4904 5.57877 16.4904 5.57999 16.4904C5.73983 16.489 5.88748 16.4001 5.96958 16.2555L10.2242 8.76759C10.7318 7.87248 11 6.8454 11 5.7974C11 2.60071 8.5327 0 5.5 0ZM9.43757 8.27153L5.56942 15.0792L1.6001 8.33685C1.15298 7.57571 0.910556 6.6976 0.910556 5.7974C0.910556 3.13349 2.97275 0.959791 5.5 0.959791C8.02725 0.959791 10.0864 3.13349 10.0864 5.7974C10.0864 6.6709 9.85994 7.52657 9.43757 8.27153Z"/>
    <path d="M5.50014 2.44336C3.8153 2.44336 2.44458 3.81328 2.44458 5.49713C2.44458 7.17022 3.793 8.5509 5.50014 8.5509C7.22832 8.5509 8.55569 7.15183 8.55569 5.49713C8.55569 3.81328 7.18497 2.44336 5.50014 2.44336ZM5.50014 7.53976C4.37104 7.53976 3.45631 6.62251 3.45631 5.49713C3.45631 4.37456 4.37691 3.4545 5.50014 3.4545C6.62336 3.4545 7.54057 4.37456 7.54057 5.49713C7.54057 6.60609 6.64712 7.53976 5.50014 7.53976Z"/>
</symbol><symbol viewBox="0 0 15 16" id="phone" xmlns="http://www.w3.org/2000/svg">
    <path d="M14.6144 11.6797L12.7496 9.7111C12.2355 9.1684 11.3989 9.1684 10.8848 9.7111L10.0372 10.6059C9.64769 11.0171 9.01392 11.0169 8.62457 10.6061L4.95058 6.72429C4.56018 6.31217 4.56012 5.64513 4.95058 5.23294C5.08711 5.08882 5.47915 4.67496 5.79821 4.33815C6.31008 3.79782 6.31722 2.91744 5.79771 2.36907L3.93341 0.407207C3.41928 -0.135498 2.58273 -0.135498 2.06999 0.405784C1.6863 0.8073 1.56254 0.936829 1.3905 1.11686C-0.463486 3.074 -0.463486 6.25851 1.39041 8.21558L7.21173 14.3641C9.07005 16.3258 12.0778 16.326 13.9363 14.3641L14.6144 13.6482C15.1285 13.1055 15.1285 12.2224 14.6144 11.6797ZM2.69023 1.06339C2.86159 0.882487 3.14039 0.882456 3.31232 1.06388L5.17662 3.02575C5.34839 3.20709 5.34839 3.50057 5.17662 3.68193L4.86579 4.01002L2.38101 1.38696L2.69023 1.06339ZM7.83343 13.708L2.01209 7.55943C0.577712 6.04522 0.498871 3.66758 1.76962 2.05394L4.24719 4.66939C3.59619 5.44845 3.62332 6.63559 4.32884 7.38038L8.00272 11.262C8.00275 11.262 8.00281 11.2621 8.00284 11.2621C8.7076 12.0061 9.8321 12.0366 10.571 11.3484L13.0486 13.9639C11.5249 15.3031 9.27769 15.2326 7.83343 13.708ZM13.9928 12.992L13.682 13.3202L11.1956 10.6954L11.5064 10.3673C11.6778 10.1864 11.9566 10.1864 12.128 10.3673L13.9928 12.3359C14.1642 12.5168 14.1642 12.8112 13.9928 12.992Z"/>
</symbol><symbol viewBox="0 0 6 6" id="round" xmlns="http://www.w3.org/2000/svg">
    <ellipse cx="2.99435" cy="3" rx="2.99435" ry="3"/>
</symbol><symbol viewBox="0 0 26 25" id="scales" xmlns="http://www.w3.org/2000/svg">
    <path d="M25.9558 12.5275L25.9337 12.5386L22.2036 3.25484H23.9056C24.2108 3.25484 24.4582 3.00741 24.4582 2.70223C24.4582 2.39706 24.2108 2.14963 23.9056 2.14963H13.5056V0.552604C13.5056 0.247428 13.2582 0 12.953 0C12.6479 0 12.4004 0.247428 12.4004 0.552604V2.1441H2.00595C1.70078 2.1441 1.45335 2.39153 1.45335 2.69671C1.45335 3.00188 1.70078 3.24931 2.00595 3.24931H3.77981L0.0442083 12.5275C0.0165781 12.5922 0.00158874 12.6617 0 12.732C0 15.2697 2.0572 17.3269 4.5949 17.3269C7.13259 17.3269 9.1898 15.2697 9.1898 12.732C9.18821 12.6617 9.17322 12.5922 9.14559 12.5275L5.41552 3.24378H12.4004V20.3303C9.76451 20.5292 7.70329 22.1318 7.70329 24.0714C7.70329 24.3766 7.95072 24.624 8.2559 24.624H17.6502C17.9553 24.624 18.2028 24.3766 18.2028 24.0714C18.2028 22.1318 16.1416 20.5292 13.5056 20.3303V3.24378H20.5624L16.8544 12.5275C16.8268 12.5922 16.8118 12.6617 16.8102 12.732C16.8102 15.2697 18.8674 17.3269 21.4051 17.3269C23.9428 17.3269 26 15.2697 26 12.732C25.9984 12.6617 25.9834 12.5922 25.9558 12.5275ZM4.59214 16.23C2.88058 16.2276 1.42295 14.9852 1.14942 13.2956H8.01275C7.74059 14.977 6.29533 16.2168 4.59214 16.23ZM7.81382 12.1904H1.38151L4.60319 4.17216L7.81382 12.1904ZM16.9981 23.5188H8.90244C9.31137 22.3307 10.9968 21.4134 12.9475 21.4134C14.8982 21.4134 16.5892 22.3307 16.9981 23.5188ZM21.3802 4.17768L24.5909 12.1904H18.1586L21.3802 4.17768ZM21.3802 16.23V16.2355C19.6752 16.2219 18.2294 14.9792 17.9596 13.2956H24.823C24.5494 14.9852 23.0918 16.2276 21.3802 16.23Z"/>
</symbol><symbol viewBox="0 0 13 12" id="search" xmlns="http://www.w3.org/2000/svg">
    <path fill-rule="evenodd" clip-rule="evenodd" d="M4.5 8C6.433 8 8 6.433 8 4.5C8 2.567 6.433 1 4.5 1C2.567 1 1 2.567 1 4.5C1 6.433 2.567 8 4.5 8ZM4.5 9C6.98528 9 9 6.98528 9 4.5C9 2.01472 6.98528 0 4.5 0C2.01472 0 0 2.01472 0 4.5C0 6.98528 2.01472 9 4.5 9Z" fill-opacity="0.5"/>
    <path fill-rule="evenodd" clip-rule="evenodd" d="M11.6546 11.6178L7.00006 6.99996L7.70996 6.29565L12.3645 10.9135L11.6546 11.6178Z" fill-opacity="0.5"/>
</symbol><symbol viewBox="0 0 24 24" id="search-line" xmlns="http://www.w3.org/2000/svg">
    <path d="M18.031 16.6168L22.3137 20.8995L20.8995 22.3137L16.6168 18.031C15.0769 19.263 13.124 20 11 20C6.032 20 2 15.968 2 11C2 6.032 6.032 2 11 2C15.968 2 20 6.032 20 11C20 13.124 19.263 15.0769 18.031 16.6168ZM16.0247 15.8748C17.2475 14.6146 18 12.8956 18 11C18 7.1325 14.8675 4 11 4C7.1325 4 4 7.1325 4 11C4 14.8675 7.1325 18 11 18C12.8956 18 14.6146 17.2475 15.8748 16.0247L16.0247 15.8748Z"/>
</symbol><symbol viewBox="0 0 22 20" id="star" xmlns="http://www.w3.org/2000/svg">
    <path d="M11 0L13.4697 7.60081H21.4616L14.996 12.2984L17.4656 19.8992L11 15.2016L4.53436 19.8992L7.00402 12.2984L0.538379 7.60081H8.53035L11 0Z"/>
</symbol><symbol viewBox="0 0 22 29" id="user" xmlns="http://www.w3.org/2000/svg">
    <path d="M10.5941 15.3117C10.6201 15.3117 10.6461 15.3117 10.6773 15.3117C10.6877 15.3117 10.6981 15.3117 10.7085 15.3117C10.7242 15.3117 10.745 15.3117 10.7606 15.3117C12.2849 15.2831 13.5179 14.6931 14.4283 13.5646C16.4313 11.0784 16.0983 6.81654 16.0619 6.40983C15.9319 3.35661 14.6208 1.89587 13.5387 1.21419C12.7323 0.704369 11.7907 0.429408 10.7398 0.406494H10.7033C10.6981 0.406494 10.6877 0.406494 10.6825 0.406494H10.6513C10.0738 0.406494 8.9397 0.509605 7.85237 1.19128C6.75985 1.87296 5.42801 3.33369 5.29795 6.40983C5.26153 6.81654 4.92857 11.0784 6.93153 13.5646C7.83677 14.6931 9.06976 15.2831 10.5941 15.3117ZM6.68701 6.55304C6.68701 6.53585 6.69222 6.51867 6.69222 6.50721C6.8639 2.39997 9.51197 1.95888 10.6461 1.95888H10.6669C10.6773 1.95888 10.6929 1.95888 10.7085 1.95888C12.1132 1.99325 14.5012 2.62337 14.6624 6.50721C14.6624 6.52439 14.6624 6.54158 14.6676 6.55304C14.6728 6.59313 15.037 10.4884 13.3826 12.5392C12.7271 13.3526 11.8531 13.7536 10.7033 13.7651C10.6929 13.7651 10.6877 13.7651 10.6773 13.7651C10.6669 13.7651 10.6617 13.7651 10.6513 13.7651C9.50677 13.7536 8.62755 13.3526 7.97723 12.5392C6.32804 10.4999 6.68181 6.58741 6.68701 6.55304Z"/>
    <path d="M21.3682 22.3805C21.3682 22.3748 21.3682 22.3691 21.3682 22.3633C21.3682 22.3175 21.363 22.2717 21.363 22.2201C21.3318 21.0859 21.2641 18.4337 19.0062 17.5859C18.9906 17.5801 18.9698 17.5744 18.9542 17.5687C16.6079 16.9099 14.6569 15.4206 14.6361 15.4034C14.3188 15.157 13.8817 15.243 13.658 15.5924C13.4343 15.9418 13.5124 16.423 13.8297 16.6693C13.9182 16.7381 15.9888 18.3248 18.5796 19.0581C19.7918 19.5335 19.9271 20.9599 19.9635 22.266C19.9635 22.3175 19.9635 22.3633 19.9687 22.4092C19.9739 22.9247 19.9427 23.721 19.8594 24.1792C19.0166 24.7062 15.713 26.5279 10.6874 26.5279C5.68257 26.5279 2.35816 24.7005 1.51015 24.1735C1.42691 23.7152 1.39049 22.919 1.40089 22.4034C1.40089 22.3576 1.4061 22.3118 1.4061 22.2602C1.44251 20.9542 1.57778 19.5278 2.78997 19.0523C5.38082 18.3191 7.45143 16.7266 7.53987 16.6636C7.85722 16.4173 7.93526 15.9361 7.71155 15.5867C7.48784 15.2372 7.05083 15.1513 6.73348 15.3976C6.71267 15.4148 4.77213 16.9042 2.41539 17.563C2.39458 17.5687 2.37897 17.5744 2.36336 17.5801C0.105466 18.4337 0.0378337 21.0859 0.00661858 22.2144C0.00661858 22.266 0.00661846 22.3118 0.00141594 22.3576C0.00141594 22.3633 0.00141594 22.3691 0.00141594 22.3748C-0.00378658 22.6727 -0.00898899 24.2021 0.266745 24.9697C0.31877 25.1187 0.412415 25.2447 0.537276 25.3306C0.693352 25.4452 4.43396 28.0688 10.6926 28.0688C16.9512 28.0688 20.6918 25.4395 20.8479 25.3306C20.9676 25.2447 21.0664 25.1187 21.1185 24.9697C21.3786 24.2079 21.3734 22.6784 21.3682 22.3805Z"/>
</symbol><symbol viewBox="0 0 24 24" id="user-star-line" xmlns="http://www.w3.org/2000/svg">
    <path d="M12 14V16C8.68629 16 6 18.6863 6 22H4C4 17.5817 7.58172 14 12 14ZM12 13C8.685 13 6 10.315 6 7C6 3.685 8.685 1 12 1C15.315 1 18 3.685 18 7C18 10.315 15.315 13 12 13ZM12 11C14.21 11 16 9.21 16 7C16 4.79 14.21 3 12 3C9.79 3 8 4.79 8 7C8 9.21 9.79 11 12 11ZM18 21.5L15.0611 23.0451L15.6224 19.7725L13.2447 17.4549L16.5305 16.9775L18 14L19.4695 16.9775L22.7553 17.4549L20.3776 19.7725L20.9389 23.0451L18 21.5Z"/>
</symbol><symbol id="website" enable-background="new 0 0 497 497" viewBox="0 0 497 497" xmlns="http://www.w3.org/2000/svg">
    <g>
        <path d="m497 128.5v312c0 11.046-8.954 20-20 20h-457c-11.046 0-20-8.954-20-20v-312z"/>
        <g>
            <path d="m290.498 294.5c0-23.196-18.804-42-42-42-7.031 0-13.659 1.728-19.482 4.782-13.386 7.021-19.327 21.053-19.327 37.218 0 23.196 15.613 36.457 38.809 36.457 16.214 0 30.282-3.645 37.282-17.099 3.014-5.792 4.718-12.376 4.718-19.358z"/>
            <path d="m286.468 312.47c-6.73 14.21-21.2 24.03-37.97 24.03-23.2 0-42-18.8-42-42 0-16.77 9.82-31.24 24.03-37.97-2.59 5.45-4.03 11.54-4.03 17.97 0 23.2 18.8 42 42 42 6.43 0 12.52-1.44 17.97-4.03z"/>
        </g>
        <g>
            <path d="m429.496 294.5c0-23.196-18.804-42-42-42-7.031 0-13.659 1.728-19.482 4.782-13.386 7.021-19.327 21.053-19.327 37.218 0 23.196 15.613 36.457 38.809 36.457 16.214 0 30.282-3.645 37.282-17.099 3.014-5.792 4.718-12.376 4.718-19.358z"/>
            <path d="m425.466 312.47c-6.73 14.21-21.2 24.03-37.97 24.03-23.2 0-42-18.8-42-42 0-16.77 9.82-31.24 24.03-37.97-2.59 5.45-4.03 11.54-4.03 17.97 0 23.2 18.8 42 42 42 6.43 0 12.52-1.44 17.97-4.03z"/>
        </g>
        <path d="m497 148.5v-20l-276.011-12.798-220.989 12.798v20 292c0 11.046 8.954 20 20 20h15c-8.28 0-15-6.72-15-15v-291c0-3.314 2.686-6 6-6z"/>
        <g>
            <path d="m497 56.5v72.5h-497v-72.5c0-11.046 8.954-20 20-20h457c11.046 0 20 8.954 20 20z"/>
            <g>
                <path d="m227.758 108.5c-8.255 0-14.947-6.716-14.947-15s6.692-15 14.947-15h208.315c8.255 0 14.947 6.716 14.947 15s-6.692 15-14.947 15z"/>
                <ellipse cx="160.869" cy="93.5" rx="14.947" ry="15"/>
                <path d="m171.361 104.184 12.874-12.869-13.139 1.179z"/>
                <path d="m150.592 82.608 12.562-12.516-2.693 10.408z"/>
                <ellipse cx="98.034" cy="93.5" rx="14.947" ry="15"/>
                <path d="m108.553 104.157 12.382-12.499-12.674.836z"/>
                <path d="m87.757 82.608 12.371-12.459-2.502 10.351z"/>
                <ellipse cx="32.947" cy="93.5" rx="14.947" ry="15"/>
                <path d="m43.769 103.846 12.721-13.186-13.139 1.381z"/>
                <path d="m22.67 82.608 11.622-12.038-1.753 9.93z"/>
            </g>
            <ellipse cx="173.849" cy="80.5" rx="14.947" ry="15"/>
            <path d="m217.514 82.577 12.971-12.991-3.025 14.276z"/>
            <path d="m446.83 103.915 13.149-13.179-10.185 3.381z"/>
            <ellipse cx="110.946" cy="80.5" rx="14.947" ry="15"/>
            <ellipse cx="45.495" cy="80.5" rx="14.947" ry="15"/>
            <path d="m240.737 95.5c-8.255 0-14.947-6.716-14.947-15s6.692-15 14.947-15h208.315c8.255 0 14.947 6.716 14.947 15s-6.692 15-14.947 15z"/>
        </g>
        <path d="m135.893 215 226.628 2c5.523 0 10-4.477 10-10l3.479-7v-30c0-5.523-4.477-10-10-10h-224l-6.107 5c-5.523 0-10 4.477-10 10v30c0 5.523 4.477 10 10 10z"/>
        <path d="m376 200v10c0 5.523-4.477 10-10 10h-234c-5.523 0-10-4.477-10-10v-40c0-5.523 4.477-10 10-10h10v33c0 3.866 3.134 7 7 7z"/>
        <g>
            <path d="m151.5 294.5c0-23.196-18.804-42-42-42-7.031 0-13.659 1.728-19.482 4.782-13.386 7.021-19.327 21.053-19.327 37.218 0 23.196 15.613 36.457 38.809 36.457 16.214 0 30.282-3.645 37.282-17.099 3.014-5.792 4.718-12.376 4.718-19.358z"/>
            <path d="m147.47 312.47c-6.73 14.21-21.2 24.03-37.97 24.03-23.2 0-42-18.8-42-42 0-16.77 9.82-31.24 24.03-37.97-2.59 5.45-4.03 11.54-4.03 17.97 0 23.2 18.8 42 42 42 6.43 0 12.52-1.44 17.97-4.03z"/>
        </g>
        <g>
            <g>
                <path d="m149.5 374h-70c-4.142 0-7.5-3.358-7.5-7.5s3.358-7.5 7.5-7.5h70c4.142 0 7.5 3.358 7.5 7.5s-3.358 7.5-7.5 7.5z"/>
            </g>
            <g>
                <path d="m149.5 404h-80c-4.142 0-7.5-3.358-7.5-7.5s3.358-7.5 7.5-7.5h80c4.142 0 7.5 3.358 7.5 7.5s-3.358 7.5-7.5 7.5z"/>
            </g>
            <g>
                <path d="m149.5 434h-80c-4.142 0-7.5-3.358-7.5-7.5s3.358-7.5 7.5-7.5h80c4.142 0 7.5 3.358 7.5 7.5s-3.358 7.5-7.5 7.5z"/>
            </g>
        </g>
        <g>
            <g>
                <path d="m288.5 374h-70c-4.142 0-7.5-3.358-7.5-7.5s3.358-7.5 7.5-7.5h70c4.143 0 7.5 3.358 7.5 7.5s-3.357 7.5-7.5 7.5z"/>
            </g>
            <g>
                <path d="m288.5 404h-80c-4.142 0-7.5-3.358-7.5-7.5s3.358-7.5 7.5-7.5h80c4.143 0 7.5 3.358 7.5 7.5s-3.357 7.5-7.5 7.5z"/>
            </g>
            <g>
                <path d="m288.5 434h-80c-4.142 0-7.5-3.358-7.5-7.5s3.358-7.5 7.5-7.5h80c4.143 0 7.5 3.358 7.5 7.5s-3.357 7.5-7.5 7.5z"/>
            </g>
        </g>
        <g>
            <g>
                <path d="m427.5 374h-70c-4.143 0-7.5-3.358-7.5-7.5s3.357-7.5 7.5-7.5h70c4.143 0 7.5 3.358 7.5 7.5s-3.357 7.5-7.5 7.5z"/>
            </g>
            <g>
                <path d="m427.5 404h-80c-4.143 0-7.5-3.358-7.5-7.5s3.357-7.5 7.5-7.5h80c4.143 0 7.5 3.358 7.5 7.5s-3.357 7.5-7.5 7.5z"/>
            </g>
            <g>
                <path d="m427.5 434h-80c-4.143 0-7.5-3.358-7.5-7.5s3.357-7.5 7.5-7.5h80c4.143 0 7.5 3.358 7.5 7.5s-3.357 7.5-7.5 7.5z"/>
            </g>
        </g>
    </g>
</symbol></svg>