<svg width="113" height="33" viewBox="0 0 113 33" fill="none" xmlns="http://www.w3.org/2000/svg">
<g clip-path="url(#clip0_55_1558)">
<mask id="mask0_55_1558" style="mask-type:luminance" maskUnits="userSpaceOnUse" x="0" y="0" width="32" height="34">
<path fill-rule="evenodd" clip-rule="evenodd" d="M7.93371 0.0150233L9.29953 0L23.5061 0.00601006C23.7218 0.00801325 23.8563 0.0110169 23.9898 0.0150233C24.6939 0.0340535 25.4049 0.0761208 26.1014 0.205326C26.799 0.327207 27.4754 0.555374 28.1085 0.882402C28.7391 1.21092 29.3176 1.6396 29.8177 2.15342C30.318 2.66479 30.7369 3.25504 31.0587 3.9022C31.3876 4.56024 31.5936 5.23431 31.7203 5.95746C31.8461 6.6706 31.8877 7.39775 31.9061 8.1189C31.9157 8.44942 31.9196 8.77995 31.9206 9.11147L31.9225 9.70141V22.7591C31.9225 23.1518 31.9225 23.5454 31.9206 23.939C31.9186 24.2695 31.9157 24.6001 31.9061 24.9306C31.8867 25.6517 31.8461 26.3799 31.7203 27.092C31.601 27.8077 31.3779 28.5006 31.0587 29.1473C30.7367 29.7946 30.3178 30.3852 29.8177 30.8971C29.3157 31.4107 28.7389 31.8396 28.1085 32.1681C27.4754 32.4952 26.799 32.7233 26.1014 32.8452C25.4049 32.9734 24.6939 33.0154 23.9898 33.0355L21.8675 33.0525L8.41639 33.0445C8.25547 33.0427 8.09457 33.0393 7.93371 33.0345C7.22952 33.0164 6.51857 32.9734 5.82212 32.8452C5.12478 32.7233 4.44873 32.4951 3.81596 32.1681C2.54934 31.508 1.51622 30.4509 0.863789 29.1473C0.545047 28.5004 0.322014 27.8076 0.202163 27.092C0.0764155 26.3799 0.0357894 25.6517 0.0174109 24.9316C0.00773798 24.6011 0.0048367 24.2695 0.00290212 23.939L0 23.3471V10.2913C0 9.89872 2.50889e-07 9.5051 0.00290212 9.11247C0.0048367 8.78195 0.00870527 8.45142 0.0174109 8.1199C0.0367567 7.39875 0.0773828 6.6716 0.202163 5.95846C0.321943 5.2429 0.544979 4.55006 0.863789 3.9032C1.51526 2.59921 2.54823 1.54189 3.81499 0.882402C4.44809 0.55536 5.12447 0.327193 5.82212 0.205326C6.51857 0.0771224 7.22952 0.0350551 7.93371 0.0150233Z" fill="white"/>
</mask>
<g mask="url(#mask0_55_1558)">
<path d="M0 -0.00195312H31.8747V33.001H0V-0.00195312Z" fill="#19AA1E"/>
<path fill-rule="evenodd" clip-rule="evenodd" d="M0 -0.00195312H31.8747V10.826L0 5.67005V-0.00195312Z" fill="#FFB919"/>
<path fill-rule="evenodd" clip-rule="evenodd" d="M0 29.3899L31.8747 24.2339V32.9999H0V29.3899Z" fill="#82D714"/>
<path fill-rule="evenodd" clip-rule="evenodd" d="M0 5.01807L11.1262 6.81807C12.5111 5.91007 14.1588 5.41207 15.9369 5.41207C18.3997 5.41207 20.6133 6.36707 22.2243 8.04307C22.4271 8.25507 22.6183 8.47607 22.799 8.70607L31.8747 10.1741V11.4791L23.7203 10.1591C24.3306 11.3671 24.6504 12.7098 24.6524 14.0731C24.6524 15.8411 24.2709 17.6041 23.4808 19.3741L23.4576 19.4281L23.1215 20.1721H22.3296C20.6916 20.1721 19.606 20.6791 18.8951 21.5781C18.3379 22.2831 18.0153 23.2351 17.9071 24.2731L17.9033 24.3051L17.8878 24.4711L17.881 24.5431L17.8675 24.6841C17.826 25.1481 17.7989 25.5411 17.7845 25.8611L31.8747 23.5811V24.8861L0 30.0431V28.7381L14.1057 26.4561L14.0999 26.1631L14.098 26.0811L14.096 26.0381L14.0941 25.9731C14.0815 25.6181 14.0497 25.1631 13.9994 24.6111L13.9898 24.5061L13.9724 24.3251C13.872 23.2811 13.5542 22.3181 12.9969 21.6021C12.2948 20.6971 11.2198 20.1821 9.59438 20.1721H8.75219L8.41705 19.4281C7.61156 17.6401 7.22137 15.8591 7.22137 14.0731C7.22137 11.8271 8.10123 9.65507 9.65039 8.04307L9.78561 7.90607L0 6.32207V5.01807Z" fill="white"/>
<path fill-rule="evenodd" clip-rule="evenodd" d="M15.9364 6.70117C20.3868 6.70117 23.4069 10.2472 23.4069 14.0732C23.4069 15.6092 23.0834 17.2072 22.3281 18.8832C17.9501 18.8832 16.8694 22.1292 16.6646 24.1732L16.6511 24.3082C16.5825 25.0382 16.5419 25.6232 16.5313 26.0632L15.3453 26.2552V26.2152C15.3288 25.5653 15.2863 24.9164 15.2178 24.2702L15.2149 24.2342C15.0256 22.1952 13.9681 18.8832 9.5456 18.8832C8.78937 17.2072 8.46582 15.6092 8.46582 14.0732C8.46582 10.2472 11.4869 6.70117 15.9364 6.70117Z" fill="#0073FA"/>
</g>
<path fill-rule="evenodd" clip-rule="evenodd" d="M47.193 6C42.2828 6 38.6011 9.023 38.632 14.273H43.1955C43.1327 12.173 44.4539 10.136 47.193 10.136C49.2695 10.136 50.5917 11.536 50.5917 13.318C50.5917 15.164 49.143 16.182 46.8154 17.328C43.7624 18.823 41.937 19.523 38.632 20.636V26.682H55.6265V22.545H44.8007C46.3778 21.88 47.9135 21.15 49.3014 20.477C52.983 18.696 55.1542 16.691 55.1542 13.096C55.1542 8.768 51.9448 6 47.193 6ZM62.5504 10.454H71.3624V6.318H58.1443V26.682H62.5504V10.454ZM78.2863 6.318H73.8803V26.682H78.2545L86.4687 13.668V26.682H90.8747V6.318H86.4687L78.2863 19.332V6.318ZM113 19.045H108.436C107.744 21.305 105.635 22.864 103.149 22.864C99.5294 22.864 97.1689 19.714 97.1689 16.5C97.1689 13.286 99.4666 10.136 103.275 10.136C105.793 10.136 107.744 11.696 108.436 13.955H113C112.339 9.405 108.783 6 103.149 6C96.9178 6 92.7629 10.423 92.7629 16.5C92.7629 22.577 96.9178 27 103.149 27C108.783 27 112.339 23.66 113 19.045Z" fill="#262626"/>
</g>
<defs>
<clipPath id="clip0_55_1558">
<rect width="113" height="33" fill="white"/>
</clipPath>
</defs>
</svg>
