<svg width="137" height="28" viewBox="0 0 137 28" fill="none" xmlns="http://www.w3.org/2000/svg">
<g clip-path="url(#clip0_55_1576)">
<path d="M0 14C0 6.2678 5.88846 0 13.1556 0C20.4202 0 26.3113 6.2678 26.3113 14C26.3113 21.7322 20.4202 28 13.1556 28C5.88846 28 0 21.7322 0 14Z" fill="#FC3F1D"/>
<path d="M14.9571 8.04171H13.8027C11.6865 8.04171 10.5734 9.22144 10.5734 10.9608C10.5734 12.927 11.3429 13.8482 12.9233 15.0293L14.2287 15.9973L10.4772 22.1668H7.67383L11.0406 16.6477C9.10424 15.1201 8.01738 13.6365 8.01738 11.1272C8.01738 7.98121 10.01 5.8335 13.789 5.8335H17.5406V22.1517H14.9571V8.04171Z" fill="white"/>
</g>
<path fill-rule="evenodd" clip-rule="evenodd" d="M39.4671 0C33.6545 0 28.9426 5.01419 28.9426 11.1998C28.9426 14.2916 30.1203 17.0913 32.0237 19.1178C33.928 21.1453 38.4148 24.0794 38.6779 27.1601C38.7178 27.622 39.0321 28 39.4671 28C39.9031 28 40.2175 27.622 40.2573 27.1601C40.5204 24.0794 45.0062 21.1453 46.9106 19.1178C48.8149 17.0913 49.9916 14.2916 49.9916 11.1998C49.9916 5.01419 45.2798 0 39.4671 0Z" fill="#FF4433"/>
<path fill-rule="evenodd" clip-rule="evenodd" d="M39.4965 15.163C41.5367 15.163 43.1901 13.4025 43.1901 11.2324C43.1901 9.06135 41.5367 7.30078 39.4965 7.30078C37.4564 7.30078 35.803 9.06135 35.803 11.2324C35.803 13.4025 37.4564 15.163 39.4965 15.163Z" fill="white"/>
<path fill-rule="evenodd" clip-rule="evenodd" d="M125.113 20.0372H123.34V14.6631H125.205C126.846 14.6631 127.808 15.4311 127.808 17.3658C127.808 19.3015 126.745 20.0372 125.113 20.0372ZM133.17 6.3955V23.1718H137V6.3955H133.17ZM119.519 6.3955V23.1718H125.337C129.096 23.1718 131.761 21.1736 131.761 17.2296C131.761 13.4954 129.38 11.5284 125.397 11.5284H123.34V6.3955H119.519ZM117.269 9.53018V6.3955H104.45V9.53018H108.95V23.1718H112.77V9.53018H117.269ZM96.5554 20.3642C94.528 20.3642 93.4955 18.6708 93.4955 14.7993C93.4955 10.8977 94.5893 9.20421 96.7479 9.20421C98.8355 9.20421 99.8594 10.8977 99.8594 14.768C99.8594 18.6708 98.7645 20.3642 96.5554 20.3642ZM93.2115 6.3955H89.6741V28H93.4955V21.2048C94.4678 22.6985 95.8767 23.4989 97.518 23.4989C101.237 23.4989 103.811 20.4055 103.811 14.768C103.811 9.16179 101.308 6.06953 97.7105 6.06953C95.9068 6.06953 94.4269 6.93246 93.4041 8.56232L93.2115 6.3955ZM82.7734 19.1653C82.2862 19.901 81.3849 20.5004 80.0373 20.5004C78.4358 20.5004 77.6248 19.5649 77.6248 18.1338C77.6248 16.2304 78.9424 15.5361 82.226 15.5361H82.7734V19.1653ZM86.5938 11.7283C86.5938 7.66813 84.5976 6.13205 80.5535 6.13205C78.0206 6.13205 76.0244 6.96372 74.8682 7.66813V10.9714C75.8921 10.1609 78.1422 9.2991 80.1083 9.2991C81.9324 9.2991 82.7734 9.96109 82.7734 11.7707V12.6961H82.155C76.3073 12.6961 73.7131 14.7055 73.7131 18.1025C73.7131 21.4996 75.6996 23.404 78.6595 23.404C80.9085 23.404 81.8711 22.636 82.611 21.8367H82.7734C82.8036 22.2676 82.9348 22.8358 83.0574 23.1718H86.7863C86.654 21.8054 86.5938 20.4379 86.5938 19.0704V11.7283ZM69.0216 23.1718H73.5518L65.6164 11.0026L72.8118 0H68.8592L61.9478 10.6655V0H58.0662V23.1718H61.9478V12.2965L69.0216 23.1718Z" fill="black"/>
<defs>
<clipPath id="clip0_55_1576">
<rect width="26.3113" height="28" fill="white"/>
</clipPath>
</defs>
</svg>
