<svg width="12" height="12" viewBox="0 0 12 12" fill="none" xmlns="http://www.w3.org/2000/svg">
<path d="M6.00159 9.91475L2.80935 11.9387C2.71555 11.9873 2.62849 12.007 2.54817 11.9978C2.46844 11.9879 2.39076 11.959 2.31513 11.911C2.23891 11.8618 2.18146 11.7922 2.14277 11.7023C2.10407 11.6125 2.10055 11.5143 2.13221 11.4078L2.98172 7.61288L0.17202 5.05525C0.0928734 4.98754 0.0406955 4.90659 0.0154859 4.81241C-0.00972372 4.71823 -0.00415411 4.62805 0.0321946 4.54188C0.0685433 4.4557 0.116911 4.38491 0.177296 4.32951C0.238268 4.27596 0.320346 4.23964 0.42353 4.22056L4.1311 3.88077L5.57684 0.287157C5.6167 0.18559 5.67416 0.112339 5.7492 0.0674033C5.82424 0.0224677 5.90837 0 6.00159 0C6.09481 0 6.17923 0.0224677 6.25486 0.0674033C6.33049 0.112339 6.38765 0.18559 6.42634 0.287157L7.87208 3.88077L11.5788 4.22056C11.6825 4.23902 11.7649 4.27565 11.8259 4.33043C11.8869 4.3846 11.9355 4.45508 11.9719 4.54188C12.0076 4.62805 12.0129 4.71823 11.9877 4.81241C11.9625 4.90659 11.9103 4.98754 11.8312 5.05525L9.02147 7.61288L9.87097 11.4078C9.9038 11.513 9.90058 11.6109 9.8613 11.7014C9.82202 11.7919 9.76427 11.8614 9.68805 11.9101C9.61301 11.9593 9.53533 11.9886 9.45501 11.9978C9.37528 12.007 9.28851 11.9873 9.19471 11.9387L6.00159 9.91475Z" fill="#F6B500"/>
</svg>
