<svg width="18" height="18" viewBox="0 0 18 18" fill="none" xmlns="http://www.w3.org/2000/svg">
<path fill-rule="evenodd" clip-rule="evenodd" d="M9.417 17.25H8.592L7.836 16.3373C6.8175 15.1073 5.637 13.533 4.70325 11.9002C3.79725 10.3162 3 8.46975 3 6.75C3 3.29625 5.54625 0.75 9 0.75C12.4537 0.75 15 3.29625 15 6.75C15 8.47875 14.178 10.326 13.2653 11.9002C12.3232 13.5247 11.1427 15.0938 10.1625 16.3177L9.417 17.25ZM12 6.75C12 7.54565 11.6839 8.30871 11.1213 8.87132C10.5587 9.43393 9.79565 9.75 9 9.75C8.20435 9.75 7.44129 9.43393 6.87868 8.87132C6.31607 8.30871 6 7.54565 6 6.75C6 5.95435 6.31607 5.19129 6.87868 4.62868C7.44129 4.06607 8.20435 3.75 9 3.75C9.79565 3.75 10.5587 4.06607 11.1213 4.62868C11.6839 5.19129 12 5.95435 12 6.75Z" fill="#0D84D4"/>
<path d="M9 8.25C8.60218 8.25 8.22064 8.09196 7.93934 7.81066C7.65804 7.52936 7.5 7.14782 7.5 6.75C7.5 6.35218 7.65804 5.97064 7.93934 5.68934C8.22064 5.40804 8.60218 5.25 9 5.25C9.39782 5.25 9.77936 5.40804 10.0607 5.68934C10.342 5.97064 10.5 6.35218 10.5 6.75C10.5 7.14782 10.342 7.52936 10.0607 7.81066C9.77936 8.09196 9.39782 8.25 9 8.25Z" fill="#0D84D4"/>
</svg>
