<svg width="36" height="36" viewBox="0 0 36 36" fill="none" xmlns="http://www.w3.org/2000/svg">
<path d="M9.85595 17.3615C9.85595 17.3615 16.6225 14.4828 18.9693 13.4691C19.8689 13.0636 22.9197 11.7662 22.9197 11.7662C22.9197 11.7662 24.3278 11.1985 24.2104 12.5771C24.1713 13.1447 23.8584 15.1314 23.5455 17.2804C23.0761 20.3213 22.5677 23.646 22.5677 23.646C22.5677 23.646 22.4894 24.5786 21.8245 24.7408C21.1596 24.903 20.0644 24.1732 19.8689 24.011C19.7124 23.8894 16.9354 22.0648 15.9185 21.1728C15.6447 20.9295 15.3318 20.443 15.9575 19.8753C17.3656 18.5373 19.0475 16.8749 20.0644 15.8208C20.5338 15.3342 21.0031 14.1989 19.0475 15.5774C16.2705 17.5642 13.5326 19.4293 13.5326 19.4293C13.5326 19.4293 12.9067 19.8347 11.7334 19.4698C10.5599 19.105 9.19099 18.6184 9.19099 18.6184C9.19099 18.6184 8.25233 18.0102 9.85595 17.3615Z" fill="#0D84D4"/>
</svg>
