<svg width="36" height="36" viewBox="0 0 36 36" fill="none" xmlns="http://www.w3.org/2000/svg">
<path d="M9 26.2803L10.2915 21.4826C9.24993 19.6136 8.91903 17.4327 9.35947 15.3401C9.79991 13.2474 10.9822 11.3834 12.6893 10.09C14.3964 8.79663 16.5138 8.16068 18.6531 8.29885C20.7923 8.43703 22.8099 9.34005 24.3355 10.8422C25.8611 12.3444 26.7925 14.345 26.9587 16.4768C27.1248 18.6086 26.5147 20.7288 25.2402 22.4481C23.9658 24.1675 22.1124 25.3707 20.0203 25.8371C17.9282 26.3035 15.7376 26.0016 13.8506 24.987L9 26.2803ZM14.0845 23.1917L14.3845 23.3692C15.7513 24.1773 17.3477 24.5117 18.9249 24.3203C20.5022 24.1289 21.9717 23.4224 23.1044 22.3111C24.2371 21.1997 24.9694 19.7457 25.1871 18.1759C25.4049 16.606 25.096 15.0084 24.3084 13.6319C23.5208 12.2555 22.2989 11.1776 20.833 10.5662C19.3671 9.95474 17.7397 9.84417 16.2042 10.2517C14.6688 10.6592 13.3116 11.5619 12.3442 12.8191C11.3768 14.0763 10.8535 15.6174 10.8558 17.2022C10.8546 18.5163 11.2189 19.8049 11.9083 20.9247L12.0965 21.2341L11.3745 23.9119L14.0845 23.1917Z" fill="#0D84D4"/>
<path fill-rule="evenodd" clip-rule="evenodd" d="M21.3654 18.4339C21.1895 18.2924 20.9836 18.1928 20.7633 18.1427C20.543 18.0926 20.3142 18.0933 20.0942 18.1448C19.7637 18.2817 19.5502 18.799 19.3366 19.0577C19.2916 19.1197 19.2254 19.1632 19.1506 19.18C19.0757 19.1968 18.9972 19.1858 18.9299 19.149C17.7199 18.6763 16.7058 17.8095 16.0521 16.6893C15.9963 16.6194 15.9699 16.5306 15.9785 16.4417C15.987 16.3528 16.0298 16.2706 16.0978 16.2126C16.336 15.9774 16.5109 15.6861 16.6063 15.3656C16.6275 15.0121 16.5463 14.66 16.3724 14.3513C16.238 13.9185 15.9821 13.5331 15.6351 13.2406C15.4562 13.1603 15.2577 13.1334 15.0638 13.1631C14.8698 13.1928 14.6886 13.2779 14.542 13.408C14.2875 13.627 14.0855 13.9002 13.9508 14.2074C13.8162 14.5146 13.7524 14.848 13.764 15.183C13.7648 15.3712 13.7887 15.5585 13.8352 15.7409C13.9533 16.179 14.1349 16.5976 14.3742 16.9834C14.5469 17.279 14.7353 17.5651 14.9386 17.8405C15.5993 18.7453 16.4299 19.5135 17.3842 20.1024C17.8631 20.4017 18.3749 20.6451 18.9095 20.8277C19.4649 21.0788 20.0781 21.1752 20.684 21.1066C21.0292 21.0545 21.3563 20.9185 21.6365 20.7107C21.9167 20.5029 22.1413 20.2296 22.2907 19.9148C22.3785 19.7246 22.4051 19.512 22.367 19.3062C22.2755 18.8853 21.7111 18.6368 21.3654 18.4339Z" fill="#0D84D4"/>
</svg>
