<?xml version="1.0" encoding="utf-8"?><svg viewBox="0 0 512 512" xmlns="http://www.w3.org/2000/svg" xmlns:xlink="http://www.w3.org/1999/xlink"><style>:root>svg{display:none}:root>svg:target{display:block}</style><svg fill="none" viewBox="0 0 14 14" id="Mark" xmlns="http://www.w3.org/2000/svg">
    <circle cx="7" cy="7" r="7" fill="#71AB28" fill-opacity=".24"/>
    <circle cx="7" cy="7" r="3" fill="#71AB28"/>
</svg><svg fill="none" viewBox="0 0 16 10" id="arrow" xmlns="http://www.w3.org/2000/svg">
    <path d="M7.113 9.23.325 2.009a1.23 1.23 0 0 1 0-1.664 1.06 1.06 0 0 1 1.563 0l6.007 6.392L13.902.345a1.06 1.06 0 0 1 1.563 0 1.23 1.23 0 0 1 0 1.663L8.677 9.231c-.216.23-.5.344-.782.344a1.07 1.07 0 0 1-.782-.344Z" fill="#E8AA31"/>
</svg><svg fill="none" viewBox="0 0 32 34" id="busket" xmlns="http://www.w3.org/2000/svg">
    <path fill-rule="evenodd" clip-rule="evenodd" d="M4.652 2.25H0V.75h4.652a2.75 2.75 0 0 1 2.716 2.317l.629 3.952h21.715a1.75 1.75 0 0 1 1.696 2.183l-1.901 7.434a3.75 3.75 0 0 1-3.633 2.821H9.977l.41 2.581a1.25 1.25 0 0 0 1.235 1.054h16.581v1.5H11.622a2.75 2.75 0 0 1-2.716-2.318L5.886 3.303A1.25 1.25 0 0 0 4.653 2.25Zm5.086 15.707h16.136a2.25 2.25 0 0 0 2.18-1.692l1.9-7.434a.25.25 0 0 0-.242-.312H8.236l1.502 9.438ZM13.57 31.826c.748 0 1.449-.646 1.449-1.56 0-.915-.7-1.56-1.45-1.56-.748 0-1.449.645-1.449 1.56 0 .914.7 1.56 1.45 1.56Zm0 1.5c1.628 0 2.949-1.37 2.949-3.06s-1.32-3.06-2.95-3.06c-1.628 0-2.949 1.37-2.949 3.06s1.32 3.06 2.95 3.06ZM26.547 31.826c.748 0 1.449-.646 1.449-1.56 0-.915-.7-1.56-1.45-1.56-.748 0-1.449.645-1.449 1.56 0 .914.7 1.56 1.45 1.56Zm0 1.5c1.628 0 2.949-1.37 2.949-3.06s-1.32-3.06-2.95-3.06c-1.628 0-2.949 1.37-2.949 3.06s1.32 3.06 2.95 3.06Z" fill="#000"/>
</svg><svg fill="none" viewBox="0 0 19 19" id="cart" xmlns="http://www.w3.org/2000/svg">
    <path d="M4.14 4.421h12.552a1 1 0 0 1 .965 1.263l-.68 2.495a3 3 0 0 1-2.894 2.212H5.241M0 1h2.003a2 2 0 0 1 1.971 1.666l1.501 8.861a2 2 0 0 0 1.972 1.666h8.929M8.841 16.699c0 .49-.413.92-.962.92-.55 0-.963-.43-.963-.92 0-.49.413-.92.963-.92s.962.43.962.92ZM16.377 16.699c0 .49-.413.92-.963.92s-.962-.43-.962-.92c0-.49.413-.92.962-.92.55 0 .963.43.963.92Z" stroke="#fff" stroke-width="1.5"/>
</svg><svg fill="none" viewBox="0 0 16 16" id="clock" xmlns="http://www.w3.org/2000/svg">
    <circle cx="8" cy="8" r="7.5" stroke="#fff"/>
    <rect width="1" height="5" rx=".5" transform="matrix(-1 0 0 1 8 4)" fill="#fff"/>
    <rect width="1" height="4" rx=".5" transform="matrix(0 1 1 0 7 8)" fill="#fff"/>
</svg><svg fill="none" viewBox="0 0 18 13" id="email" xmlns="http://www.w3.org/2000/svg">
    <path d="m1 1 7.4 5.55a1 1 0 0 0 1.2 0L17 1" stroke="#fff"/>
    <rect x=".5" y=".5" width="17" height="12" rx="1.5" stroke="#fff"/>
</svg><svg fill="none" viewBox="0 0 28 27" id="heart" xmlns="http://www.w3.org/2000/svg">
    <path d="M20.1 0A7.917 7.917 0 0 0 14 2.872 7.917 7.917 0 0 0 7.9 0C3.544 0 0 3.525 0 7.857c0 3.392 2.034 7.316 6.045 11.663 3.087 3.345 6.445 5.934 7.4 6.649l.555.414.554-.414c.956-.715 4.314-3.304 7.4-6.649C25.967 15.174 28 11.25 28 7.857 28 3.525 24.456 0 20.1 0Zm.495 18.278c-2.54 2.751-5.27 4.975-6.595 6-1.325-1.025-4.056-3.249-6.595-6-3.637-3.94-5.559-7.544-5.559-10.42 0-3.32 2.716-6.022 6.054-6.022a6.063 6.063 0 0 1 5.293 3.108L14 6.392l.807-1.448A6.063 6.063 0 0 1 20.1 1.836c3.338 0 6.054 2.701 6.054 6.021 0 2.877-1.922 6.48-5.56 10.421Z" fill="#000"/>
</svg><svg fill="none" viewBox="0 0 24 24" id="heart-line" xmlns="http://www.w3.org/2000/svg">
    <path d="M12.001 4.529a5.998 5.998 0 0 1 8.242.228 6 6 0 0 1 .236 8.236l-8.48 8.492-8.478-8.492a6 6 0 0 1 8.48-8.464Zm6.826 1.641a3.998 3.998 0 0 0-5.49-.153l-1.335 1.198-1.336-1.197a4 4 0 0 0-5.686 5.605L12 18.654l7.02-7.03a4 4 0 0 0-.193-5.454Z" fill="#000"/>
</svg><svg fill="none" viewBox="0 0 24 24" id="id-card-line" xmlns="http://www.w3.org/2000/svg">
    <path d="M3 6h18v12H3V6ZM2 4a1 1 0 0 0-1 1v14a1 1 0 0 0 1 1h20a1 1 0 0 0 1-1V5a1 1 0 0 0-1-1H2Zm11 4h6v2h-6V8Zm5 4h-5v2h5v-2Zm-7.5-2a2.5 2.5 0 1 1-5 0 2.5 2.5 0 0 1 5 0ZM8 13.5A3.5 3.5 0 0 0 4.5 17h7A3.5 3.5 0 0 0 8 13.5Z" fill="#000"/>
</svg><svg fill="none" viewBox="0 0 18 2" id="line" xmlns="http://www.w3.org/2000/svg">
    <path stroke="#898989" stroke-width="2" d="M0 1h18"/>
</svg><svg fill="none" viewBox="0 0 17 25" id="location" xmlns="http://www.w3.org/2000/svg">
    <path d="M8.5 0C3.813 0 0 3.85 0 8.584c0 1.6.439 3.16 1.269 4.514L8.016 24.08c.13.21.357.338.602.338h.006a.707.707 0 0 0 .602-.348L15.8 12.983A8.64 8.64 0 0 0 17 8.584C17 3.851 13.187 0 8.5 0Zm6.085 12.248-5.978 10.08-6.134-9.984a7.197 7.197 0 0 1-1.066-3.76c0-3.944 3.187-7.163 7.093-7.163s7.088 3.219 7.088 7.163a7.2 7.2 0 0 1-1.003 3.664Z" fill="#000"/>
    <path d="M8.496 3.617c-2.603 0-4.722 2.029-4.722 4.522 0 2.478 2.084 4.522 4.722 4.522 2.671 0 4.723-2.072 4.723-4.522 0-2.493-2.119-4.522-4.723-4.522Zm0 7.547c-1.745 0-3.158-1.358-3.158-3.025 0-1.662 1.423-3.024 3.158-3.024 1.736 0 3.154 1.362 3.154 3.024 0 1.642-1.38 3.025-3.154 3.025Z" fill="#000"/>
</svg><svg fill="none" viewBox="0 0 11 17" id="locationdown" xmlns="http://www.w3.org/2000/svg">
    <path d="M5.5 0C2.467 0 0 2.6 0 5.797c0 1.08.284 2.134.821 3.049l4.366 7.416a.454.454 0 0 0 .39.228h.003a.454.454 0 0 0 .39-.234l4.254-7.488A6.029 6.029 0 0 0 11 5.798C11 2.6 8.533 0 5.5 0Zm3.938 8.272-3.869 6.807L1.6 8.337a5.02 5.02 0 0 1-.69-2.54C.91 3.133 2.974.96 5.5.96c2.527 0 4.586 2.173 4.586 4.837 0 .874-.226 1.73-.648 2.475Z" fill="#fff"/>
    <path d="M5.5 2.443a3.058 3.058 0 0 0-3.055 3.054A3.05 3.05 0 0 0 5.5 8.551c1.728 0 3.056-1.4 3.056-3.054A3.058 3.058 0 0 0 5.5 2.443Zm0 5.097a2.045 2.045 0 0 1-2.044-2.043A2.05 2.05 0 0 1 5.5 3.455c1.123 0 2.04.92 2.04 2.042A2.04 2.04 0 0 1 5.5 7.54Z" fill="#fff"/>
</svg><svg fill="none" viewBox="0 0 15 16" id="phone" xmlns="http://www.w3.org/2000/svg">
    <path d="M14.614 11.68 12.75 9.71a1.271 1.271 0 0 0-1.865 0l-.848.895a.963.963 0 0 1-1.412 0L4.95 6.724a1.096 1.096 0 0 1 0-1.491l.847-.895c.512-.54.52-1.42 0-1.969L3.933.407A1.271 1.271 0 0 0 2.07.406l-.68.71c-1.853 1.958-1.853 5.143 0 7.1l5.822 6.148c1.858 1.962 4.866 1.962 6.724 0l.678-.716a1.449 1.449 0 0 0 0-1.968ZM2.69 1.063c.172-.18.45-.18.622 0l1.865 1.963a.482.482 0 0 1 0 .656l-.311.328L2.38 1.387l.31-.324Zm5.143 12.645-5.82-6.149C.577 6.045.498 3.668 1.77 2.054l2.477 2.615A2.061 2.061 0 0 0 4.33 7.38l3.674 3.882c.705.744 1.83.775 2.568.086l2.478 2.616c-1.524 1.34-3.771 1.269-5.216-.256Zm6.16-.716-.311.328-2.486-2.625.31-.328c.172-.18.45-.18.622 0l1.865 1.969a.483.483 0 0 1 0 .656Z" fill="#fff"/>
</svg><svg fill="none" viewBox="0 0 6 6" id="round" xmlns="http://www.w3.org/2000/svg">
    <ellipse cx="2.994" cy="3" rx="2.994" ry="3" fill="#E8AA31"/>
</svg><svg fill="none" viewBox="0 0 26 25" id="scales" xmlns="http://www.w3.org/2000/svg">
    <path d="m25.956 12.527-.022.012-3.73-9.284h1.702a.553.553 0 0 0 0-1.105h-10.4V.553a.553.553 0 0 0-1.106 0v1.591H2.006a.553.553 0 0 0 0 1.105H3.78L.044 12.528a.553.553 0 0 0-.044.204 4.595 4.595 0 1 0 9.19 0 .553.553 0 0 0-.044-.204l-3.73-9.284H12.4V20.33c-2.635.2-4.697 1.802-4.697 3.741 0 .306.248.553.553.553h9.394a.553.553 0 0 0 .553-.553c0-1.94-2.061-3.542-4.697-3.74V3.243h7.056l-3.708 9.284a.554.554 0 0 0-.044.204 4.595 4.595 0 1 0 9.19 0 .554.554 0 0 0-.044-.204ZM4.592 16.23a3.493 3.493 0 0 1-3.443-2.934h6.864a3.493 3.493 0 0 1-3.42 2.934Zm3.222-4.04H1.382l3.221-8.018 3.21 8.018Zm9.184 11.329H8.902c.41-1.188 2.095-2.106 4.046-2.106 1.95 0 3.641.918 4.05 2.106ZM21.38 4.178l3.21 8.012H18.16l3.221-8.012Zm0 12.052v.005a3.492 3.492 0 0 1-3.42-2.94h6.863a3.493 3.493 0 0 1-3.443 2.935Z" fill="#000"/>
</svg><svg fill="none" viewBox="0 0 13 12" id="search" xmlns="http://www.w3.org/2000/svg">
    <path fill-rule="evenodd" clip-rule="evenodd" d="M4.5 8a3.5 3.5 0 1 0 0-7 3.5 3.5 0 0 0 0 7Zm0 1a4.5 4.5 0 1 0 0-9 4.5 4.5 0 0 0 0 9Z" fill="#000" fill-opacity=".5"/>
    <path fill-rule="evenodd" clip-rule="evenodd" d="M11.655 11.618 7 7l.71-.704 4.654 4.618-.71.704Z" fill="#000" fill-opacity=".5"/>
</svg><svg fill="none" viewBox="0 0 24 24" id="search-line" xmlns="http://www.w3.org/2000/svg">
    <path d="m18.031 16.617 4.283 4.282-1.415 1.415-4.282-4.283A8.96 8.96 0 0 1 11 20c-4.968 0-9-4.032-9-9s4.032-9 9-9 9 4.032 9 9a8.96 8.96 0 0 1-1.969 5.617Zm-2.006-.742A6.977 6.977 0 0 0 18 11c0-3.867-3.133-7-7-7s-7 3.133-7 7 3.133 7 7 7a6.977 6.977 0 0 0 4.875-1.975l.15-.15Z" fill="#000"/>
</svg><svg fill="none" viewBox="0 0 22 20" id="star" xmlns="http://www.w3.org/2000/svg">
    <path d="m11 0 2.47 7.6h7.992l-6.466 4.698 2.47 7.601L11 15.202l-6.466 4.697 2.47-7.6L.538 7.6H8.53L11 0Z" fill="#E8AA31"/>
</svg><svg fill="none" viewBox="0 0 22 29" id="user" xmlns="http://www.w3.org/2000/svg">
    <path d="M10.594 15.312h.167c1.524-.029 2.757-.619 3.667-1.747 2.003-2.487 1.67-6.748 1.634-7.155-.13-3.053-1.441-4.514-2.523-5.196-.807-.51-1.748-.785-2.8-.808h-.088c-.577 0-1.711.104-2.799.785-1.092.682-2.424 2.143-2.554 5.219-.036.407-.37 4.668 1.634 7.155.905 1.128 2.138 1.718 3.662 1.747ZM6.687 6.553c0-.017.005-.034.005-.046.172-4.107 2.82-4.548 3.954-4.548h.063c1.404.034 3.792.664 3.953 4.548 0 .017 0 .035.006.046.005.04.369 3.935-1.285 5.986-.656.814-1.53 1.215-2.68 1.226h-.052c-1.144-.011-2.023-.412-2.674-1.226-1.649-2.04-1.295-5.952-1.29-5.986Z" fill="#fff"/>
    <path d="M21.368 22.38v-.017c0-.046-.005-.091-.005-.143-.031-1.134-.099-3.786-2.357-4.634-.015-.006-.036-.012-.052-.017-2.346-.66-4.297-2.148-4.318-2.166-.317-.246-.754-.16-.978.19-.224.349-.146.83.172 1.076.088.07 2.159 1.656 4.75 2.39 1.212.474 1.347 1.9 1.384 3.207 0 .052 0 .097.005.143.005.516-.026 1.312-.11 1.77-.842.527-4.146 2.349-9.172 2.349-5.004 0-8.329-1.827-9.177-2.354-.083-.459-.12-1.255-.11-1.77 0-.046.006-.092.006-.144.037-1.306.172-2.732 1.384-3.208 2.59-.733 4.661-2.325 4.75-2.388.317-.247.395-.728.172-1.077-.224-.35-.661-.436-.979-.19-.02.018-1.96 1.507-4.318 2.166a.613.613 0 0 0-.052.017C.105 18.434.038 21.086.007 22.214c0 .052 0 .098-.006.144v.017c-.005.298-.01 1.827.266 2.595a.723.723 0 0 0 .27.36c.156.115 3.897 2.739 10.156 2.739 6.258 0 9.999-2.63 10.155-2.738a.755.755 0 0 0 .27-.361c.26-.762.255-2.292.25-2.59Z" fill="#fff"/>
</svg><svg fill="none" viewBox="0 0 24 24" id="user-star-line" xmlns="http://www.w3.org/2000/svg">
    <path d="M12 14v2a6 6 0 0 0-6 6H4a8 8 0 0 1 8-8Zm0-1c-3.315 0-6-2.685-6-6s2.685-6 6-6 6 2.685 6 6-2.685 6-6 6Zm0-2c2.21 0 4-1.79 4-4s-1.79-4-4-4-4 1.79-4 4 1.79 4 4 4Zm6 10.5-2.939 1.545.561-3.273-2.377-2.317 3.286-.477L18 14l1.47 2.977 3.285.478-2.377 2.318.56 3.272L18 21.5Z" fill="#000"/>
</svg><svg viewBox="0 0 497 497" id="website" xmlns="http://www.w3.org/2000/svg">
    <path d="M497 128.5v312c0 11.046-8.954 20-20 20H20c-11.046 0-20-8.954-20-20v-312z" fill="#faf8f8"/>
    <path d="M290.498 294.5c0-23.196-18.804-42-42-42a41.823 41.823 0 0 0-19.482 4.782c-13.386 7.021-19.327 21.053-19.327 37.218 0 23.196 15.613 36.457 38.809 36.457 16.214 0 30.282-3.645 37.282-17.099a41.814 41.814 0 0 0 4.718-19.358z" fill="#dc4955"/>
    <path d="M286.468 312.47c-6.73 14.21-21.2 24.03-37.97 24.03-23.2 0-42-18.8-42-42 0-16.77 9.82-31.24 24.03-37.97-2.59 5.45-4.03 11.54-4.03 17.97 0 23.2 18.8 42 42 42 6.43 0 12.52-1.44 17.97-4.03z" fill="#d82f3c"/>
    <path d="M429.496 294.5c0-23.196-18.804-42-42-42a41.823 41.823 0 0 0-19.482 4.782c-13.386 7.021-19.327 21.053-19.327 37.218 0 23.196 15.613 36.457 38.809 36.457 16.214 0 30.282-3.645 37.282-17.099a41.814 41.814 0 0 0 4.718-19.358z" fill="#b7e546"/>
    <path d="M425.466 312.47c-6.73 14.21-21.2 24.03-37.97 24.03-23.2 0-42-18.8-42-42 0-16.77 9.82-31.24 24.03-37.97-2.59 5.45-4.03 11.54-4.03 17.97 0 23.2 18.8 42 42 42 6.43 0 12.52-1.44 17.97-4.03z" fill="#abd641"/>
    <path d="M497 148.5v-20l-276.011-12.798L0 128.5v312c0 11.046 8.954 20 20 20h15c-8.28 0-15-6.72-15-15v-291a6 6 0 0 1 6-6z" fill="#f0e9e6"/>
    <path d="M497 56.5V129H0V56.5c0-11.046 8.954-20 20-20h457c11.046 0 20 8.954 20 20z" fill="#5d748a"/>
    <g fill="#3f597d">
        <path d="M227.758 108.5c-8.255 0-14.947-6.716-14.947-15s6.692-15 14.947-15h208.315c8.255 0 14.947 6.716 14.947 15s-6.692 15-14.947 15z"/>
        <ellipse cx="160.869" cy="93.5" rx="14.947" ry="15"/>
        <path d="m171.361 104.184 12.874-12.869-13.139 1.179zM150.592 82.608l12.562-12.516-2.693 10.408z"/>
        <ellipse cx="98.034" cy="93.5" rx="14.947" ry="15"/>
        <path d="m108.553 104.157 12.382-12.499-12.674.836zM87.757 82.608l12.371-12.459L97.626 80.5z"/>
        <ellipse cx="32.947" cy="93.5" rx="14.947" ry="15"/>
        <path d="M43.769 103.846 56.49 90.66l-13.139 1.381zM22.67 82.608 34.292 70.57l-1.753 9.93z"/>
    </g>
    <ellipse cx="173.849" cy="80.5" fill="#b7e546" rx="14.947" ry="15"/>
    <path d="m217.514 82.577 12.971-12.991-3.025 14.276zM446.83 103.915l13.149-13.179-10.185 3.381z" fill="#3f597d"/>
    <ellipse cx="110.946" cy="80.5" fill="#ffbf54" rx="14.947" ry="15"/>
    <ellipse cx="45.495" cy="80.5" fill="#dc4955" rx="14.947" ry="15"/>
    <path d="M240.737 95.5c-8.255 0-14.947-6.716-14.947-15s6.692-15 14.947-15h208.315c8.255 0 14.947 6.716 14.947 15s-6.692 15-14.947 15z" fill="#faf8f8"/>
    <path d="m135.893 215 226.628 2c5.523 0 10-4.477 10-10l3.479-7v-30c0-5.523-4.477-10-10-10H142l-6.107 5c-5.523 0-10 4.477-10 10v30c0 5.523 4.477 10 10 10z" fill="#aad8de"/>
    <path d="M376 200v10c0 5.523-4.477 10-10 10H132c-5.523 0-10-4.477-10-10v-40c0-5.523 4.477-10 10-10h10v33a7 7 0 0 0 7 7z" fill="#94ccd4"/>
    <path d="M151.5 294.5c0-23.196-18.804-42-42-42a41.823 41.823 0 0 0-19.482 4.782c-13.386 7.021-19.327 21.053-19.327 37.218 0 23.196 15.613 36.457 38.809 36.457 16.214 0 30.282-3.645 37.282-17.099A41.814 41.814 0 0 0 151.5 294.5z" fill="#ffbf54"/>
    <path d="M147.47 312.47c-6.73 14.21-21.2 24.03-37.97 24.03-23.2 0-42-18.8-42-42 0-16.77 9.82-31.24 24.03-37.97-2.59 5.45-4.03 11.54-4.03 17.97 0 23.2 18.8 42 42 42 6.43 0 12.52-1.44 17.97-4.03z" fill="#ffa442"/>
    <path d="M149.5 374h-70a7.5 7.5 0 0 1 0-15h70a7.5 7.5 0 0 1 0 15zM149.5 404h-80a7.5 7.5 0 0 1 0-15h80a7.5 7.5 0 0 1 0 15zM149.5 434h-80a7.5 7.5 0 0 1 0-15h80a7.5 7.5 0 0 1 0 15zM288.5 374h-70a7.5 7.5 0 0 1 0-15h70c4.143 0 7.5 3.358 7.5 7.5s-3.357 7.5-7.5 7.5zM288.5 404h-80a7.5 7.5 0 0 1 0-15h80c4.143 0 7.5 3.358 7.5 7.5s-3.357 7.5-7.5 7.5zM288.5 434h-80a7.5 7.5 0 0 1 0-15h80c4.143 0 7.5 3.358 7.5 7.5s-3.357 7.5-7.5 7.5zM427.5 374h-70c-4.143 0-7.5-3.358-7.5-7.5s3.357-7.5 7.5-7.5h70c4.143 0 7.5 3.358 7.5 7.5s-3.357 7.5-7.5 7.5zM427.5 404h-80c-4.143 0-7.5-3.358-7.5-7.5s3.357-7.5 7.5-7.5h80c4.143 0 7.5 3.358 7.5 7.5s-3.357 7.5-7.5 7.5zM427.5 434h-80c-4.143 0-7.5-3.358-7.5-7.5s3.357-7.5 7.5-7.5h80c4.143 0 7.5 3.358 7.5 7.5s-3.357 7.5-7.5 7.5z" fill="#f0e9e6"/>
</svg></svg>