<svg width="32" height="32" viewBox="0 0 32 32" fill="none" xmlns="http://www.w3.org/2000/svg">
<path d="M20.0001 5.66669C17.9563 5.66669 15.9585 6.27273 14.2592 7.40817C12.5599 8.54361 11.2354 10.1575 10.4533 12.0456C9.67123 13.9338 9.46659 16.0115 9.8653 18.016C10.264 20.0204 11.2482 21.8616 12.6933 23.3068C14.1385 24.7519 15.9797 25.7361 17.9842 26.1348C19.9886 26.5335 22.0663 26.3289 23.9545 25.5468C25.8427 24.7647 27.4565 23.4402 28.5919 21.7409C29.7274 20.0416 30.3334 18.0438 30.3334 16C30.3299 13.2605 29.2401 10.6343 27.303 8.69715C25.3658 6.76004 22.7396 5.67022 20.0001 5.66669ZM23.3734 19.3734C23.1859 19.5606 22.9318 19.6658 22.6668 19.6658C22.4018 19.6658 22.1476 19.5606 21.9601 19.3734L19.2934 16.7067C19.1058 16.5193 19.0003 16.2651 19.0001 16V10.6667C19.0001 10.4015 19.1054 10.1471 19.293 9.95958C19.4805 9.77204 19.7349 9.66669 20.0001 9.66669C20.2653 9.66669 20.5197 9.77204 20.7072 9.95958C20.8947 10.1471 21.0001 10.4015 21.0001 10.6667V15.5867L23.3734 17.96C23.5607 18.1475 23.6659 18.4017 23.6659 18.6667C23.6659 18.9317 23.5607 19.1859 23.3734 19.3734Z" fill="#0D84D4"/>
<path d="M10.6667 9H6.66675C6.40153 9 6.14718 8.89464 5.95964 8.70711C5.7721 8.51957 5.66675 8.26522 5.66675 8C5.66675 7.73478 5.7721 7.48043 5.95964 7.29289C6.14718 7.10536 6.40153 7 6.66675 7H10.6667C10.932 7 11.1863 7.10536 11.3739 7.29289C11.5614 7.48043 11.6667 7.73478 11.6667 8C11.6667 8.26522 11.5614 8.51957 11.3739 8.70711C11.1863 8.89464 10.932 9 10.6667 9ZM8.00008 13H4.00008C3.73486 13 3.48051 12.8946 3.29297 12.7071C3.10544 12.5196 3.00008 12.2652 3.00008 12C3.00008 11.7348 3.10544 11.4804 3.29297 11.2929C3.48051 11.1054 3.73486 11 4.00008 11H8.00008C8.2653 11 8.51965 11.1054 8.70719 11.2929C8.89472 11.4804 9.00008 11.7348 9.00008 12C9.00008 12.2652 8.89472 12.5196 8.70719 12.7071C8.51965 12.8946 8.2653 13 8.00008 13ZM8.00008 21H4.00008C3.73486 21 3.48051 20.8946 3.29297 20.7071C3.10544 20.5196 3.00008 20.2652 3.00008 20C3.00008 19.7348 3.10544 19.4804 3.29297 19.2929C3.48051 19.1054 3.73486 19 4.00008 19H8.00008C8.2653 19 8.51965 19.1054 8.70719 19.2929C8.89472 19.4804 9.00008 19.7348 9.00008 20C9.00008 20.2652 8.89472 20.5196 8.70719 20.7071C8.51965 20.8946 8.2653 21 8.00008 21ZM8.00008 17H2.66675C2.40153 17 2.14718 16.8946 1.95964 16.7071C1.7721 16.5196 1.66675 16.2652 1.66675 16C1.66675 15.7348 1.7721 15.4804 1.95964 15.2929C2.14718 15.1054 2.40153 15 2.66675 15H8.00008C8.2653 15 8.51965 15.1054 8.70719 15.2929C8.89472 15.4804 9.00008 15.7348 9.00008 16C9.00008 16.2652 8.89472 16.5196 8.70719 16.7071C8.51965 16.8946 8.2653 17 8.00008 17ZM10.6667 25H6.66675C6.40153 25 6.14718 24.8946 5.95964 24.7071C5.7721 24.5196 5.66675 24.2652 5.66675 24C5.66675 23.7348 5.7721 23.4804 5.95964 23.2929C6.14718 23.1054 6.40153 23 6.66675 23H10.6667C10.932 23 11.1863 23.1054 11.3739 23.2929C11.5614 23.4804 11.6667 23.7348 11.6667 24C11.6667 24.2652 11.5614 24.5196 11.3739 24.7071C11.1863 24.8946 10.932 25 10.6667 25Z" fill="#0D84D4"/>
</svg>
