<svg width="32" height="32" viewBox="0 0 32 32" fill="none" xmlns="http://www.w3.org/2000/svg">
<path d="M16 16C16 19.535 13.1344 22.3997 9.59995 22.3997C6.06651 22.3997 3.19995 19.535 3.19995 16C3.19995 12.4656 6.06651 9.59998 9.59995 9.59998C13.1344 9.59998 16 12.4656 16 16Z" fill="#0D84D4"/>
<path d="M17.5999 28.7997C19.3672 28.7997 20.7999 27.367 20.7999 25.5997C20.7999 23.8323 19.3672 22.3997 17.5999 22.3997C15.8326 22.3997 14.3999 23.8323 14.3999 25.5997C14.3999 27.367 15.8326 28.7997 17.5999 28.7997Z" fill="#0D84D4"/>
<path d="M28.8 24.5331C28.2342 24.5331 27.6916 24.7579 27.2915 25.1579C26.8914 25.5579 26.6666 26.1005 26.6666 26.6662H25.6C25.5997 26.1006 25.3748 25.5581 24.9747 25.1582C24.5747 24.7582 24.0322 24.5334 23.4666 24.5331V23.4662C23.7467 23.4663 24.0241 23.4111 24.283 23.304C24.5418 23.1968 24.777 23.0397 24.9751 22.8416C25.1732 22.6435 25.3304 22.4083 25.4376 22.1495C25.5448 21.8907 25.6 21.6133 25.6 21.3331H26.6666C26.6669 21.8988 26.8918 22.4412 27.2918 22.8412C27.6918 23.2412 28.2343 23.466 28.8 23.4662V24.5331Z" fill="#0D84D4"/>
<path d="M10.6664 26.6663C11.2555 26.6663 11.733 26.1887 11.733 25.5997C11.733 25.0107 11.2555 24.5331 10.6664 24.5331C10.0774 24.5331 9.59985 25.0107 9.59985 25.5997C9.59985 26.1887 10.0774 26.6663 10.6664 26.6663Z" fill="#0D84D4"/>
<path d="M4.26651 9.59998C4.85556 9.59998 5.33307 9.12246 5.33307 8.53342C5.33307 7.94437 4.85556 7.46686 4.26651 7.46686C3.67747 7.46686 3.19995 7.94437 3.19995 8.53342C3.19995 9.12246 3.67747 9.59998 4.26651 9.59998Z" fill="#0D84D4"/>
<path d="M10.1334 7.46691C11.0171 7.46691 11.7334 6.75056 11.7334 5.86691C11.7334 4.98325 11.0171 4.26691 10.1334 4.26691C9.24979 4.26691 8.53345 4.98325 8.53345 5.86691C8.53345 6.75056 9.24979 7.46691 10.1334 7.46691Z" fill="#0D84D4"/>
<path d="M7.46651 27.1997C7.46651 28.0851 6.75003 28.7997 5.86651 28.7997C5.54997 28.7997 5.24052 28.7059 4.9773 28.5301C4.71408 28.3543 4.50891 28.1044 4.38775 27.8119C4.26658 27.5195 4.23487 27.1977 4.2966 26.8872C4.35834 26.5768 4.51076 26.2916 4.73459 26.0678C4.95842 25.8439 5.2436 25.6915 5.55406 25.6298C5.86452 25.568 6.18632 25.5998 6.47875 25.7209C6.77119 25.8421 7.02112 26.0472 7.19694 26.3105C7.37276 26.5737 7.46657 26.8831 7.46651 27.1997ZM20.2665 3.20032C16.8873 3.20032 13.9759 5.16992 12.5935 8.01888C15.8249 9.23552 18.1334 12.3491 18.1334 16C18.1334 17.3325 17.8188 18.5898 17.271 19.7142C18.2279 20.0779 19.2428 20.265 20.2665 20.2662C24.9791 20.2662 28.7999 16.4461 28.7999 11.7334C28.7999 7.0208 24.9791 3.20032 20.2665 3.20032ZM24.5334 11.7334C24.5334 9.37632 22.6249 7.46688 20.2665 7.46688V5.33344C23.8022 5.33344 26.6665 8.19808 26.6665 11.7334H24.5334Z" fill="#0D84D4"/>
</svg>
