<svg width="32" height="32" viewBox="0 0 32 32" fill="none" xmlns="http://www.w3.org/2000/svg">
<path d="M16.5166 21.0387L24.6666 6.922V5.33333C24.6666 4.44928 24.3154 3.60143 23.6903 2.97631C23.0652 2.35119 22.2173 2 21.3333 2H6.66659C5.78253 2 4.93468 2.35119 4.30956 2.97631C3.68444 3.60143 3.33325 4.44928 3.33325 5.33333V26.6667C3.33325 27.5507 3.68444 28.3986 4.30956 29.0237C4.93468 29.6488 5.78253 30 6.66659 30H21.3333C22.2173 30 23.0652 29.6488 23.6903 29.0237C24.3154 28.3986 24.6666 27.5507 24.6666 26.6667V20.2567L22.2906 24.3727C21.9377 24.9817 21.4485 25.5006 20.8613 25.8887L19.0959 27.0553C18.7479 27.2863 18.3396 27.4097 17.9219 27.41C17.3353 27.41 16.7679 27.164 16.3633 26.7347C16.1638 26.5236 16.01 26.2736 15.9115 26.0004C15.8131 25.7271 15.7722 25.4365 15.7913 25.1467L15.9173 23.0347C15.96 22.3317 16.1652 21.6483 16.5166 21.038V21.0387ZM7.33325 6H13.3333C13.5101 6 13.6796 6.07024 13.8047 6.19526C13.9297 6.32029 13.9999 6.48986 13.9999 6.66667C13.9999 6.84348 13.9297 7.01305 13.8047 7.13807C13.6796 7.2631 13.5101 7.33333 13.3333 7.33333H7.33325C7.15644 7.33333 6.98687 7.2631 6.86185 7.13807C6.73682 7.01305 6.66659 6.84348 6.66659 6.66667C6.66659 6.48986 6.73682 6.32029 6.86185 6.19526C6.98687 6.07024 7.15644 6 7.33325 6ZM7.33325 10H19.5266C19.7034 10 19.873 10.0702 19.998 10.1953C20.123 10.3203 20.1933 10.4899 20.1933 10.6667C20.1933 10.8435 20.123 11.013 19.998 11.1381C19.873 11.2631 19.7034 11.3333 19.5266 11.3333H7.33325C7.15644 11.3333 6.98687 11.2631 6.86185 11.1381C6.73682 11.013 6.66659 10.8435 6.66659 10.6667C6.66659 10.4899 6.73682 10.3203 6.86185 10.1953C6.98687 10.0702 7.15644 10 7.33325 10ZM13.5733 26H12.6666C12.557 26 12.4492 25.973 12.3525 25.9213C12.2559 25.8697 12.1735 25.7951 12.1126 25.704L11.3326 24.5373L10.9079 25.1767C10.6879 25.492 10.3326 25.658 9.96059 25.614C9.78209 25.5938 9.61235 25.5258 9.46931 25.4172C9.32627 25.3085 9.21523 25.1632 9.14792 24.9967L8.66659 23.7947L7.95192 25.5813C7.91939 25.6627 7.87117 25.7368 7.81 25.7995C7.74882 25.8622 7.6759 25.9122 7.59539 25.9467C7.51489 25.9812 7.42837 25.9996 7.34078 26.0006C7.25319 26.0017 7.16625 25.9855 7.08492 25.953C7.00359 25.9205 6.92946 25.8723 6.86676 25.8111C6.80407 25.7499 6.75404 25.677 6.71952 25.5965C6.68501 25.516 6.66669 25.4294 6.66562 25.3419C6.66454 25.2543 6.68073 25.1673 6.71325 25.086L7.42659 23.2993C7.52528 23.0518 7.69588 22.8395 7.91639 22.6898C8.1369 22.5402 8.39719 22.4601 8.66368 22.4598C8.93018 22.4595 9.19064 22.5391 9.41147 22.6882C9.6323 22.8374 9.80336 23.0493 9.90259 23.2967L10.1479 23.91L10.2233 23.7973C10.4639 23.426 10.8799 23.2 11.3313 23.2C11.7826 23.2 12.1986 23.4253 12.4439 23.804L13.0206 24.6667H13.5713C13.7481 24.6667 13.9176 24.7369 14.0427 24.8619C14.1677 24.987 14.2379 25.1565 14.2379 25.3333C14.2379 25.5101 14.1677 25.6797 14.0427 25.8047C13.9176 25.9298 13.7481 26 13.5713 26H13.5733ZM14.9066 19.3333H7.33325C7.15644 19.3333 6.98687 19.2631 6.86185 19.1381C6.73682 19.013 6.66659 18.8435 6.66659 18.6667C6.66659 18.4899 6.73682 18.3203 6.86185 18.1953C6.98687 18.0702 7.15644 18 7.33325 18H14.9066C15.0834 18 15.253 18.0702 15.378 18.1953C15.503 18.3203 15.5733 18.4899 15.5733 18.6667C15.5733 18.8435 15.503 19.013 15.378 19.1381C15.253 19.2631 15.0834 19.3333 14.9066 19.3333ZM7.33325 15.3333C7.15644 15.3333 6.98687 15.2631 6.86185 15.1381C6.73682 15.013 6.66659 14.8435 6.66659 14.6667C6.66659 14.4899 6.73682 14.3203 6.86185 14.1953C6.98687 14.0702 7.15644 14 7.33325 14H17.2133C17.3901 14 17.5596 14.0702 17.6847 14.1953C17.8097 14.3203 17.8799 14.4899 17.8799 14.6667C17.8799 14.8435 17.8097 15.013 17.6847 15.1381C17.5596 15.2631 17.3901 15.3333 17.2133 15.3333H7.33325ZM28.9633 10.1473L29.7853 8.72333C29.9974 8.3559 30.0548 7.91928 29.9451 7.50947C29.8353 7.09966 29.5673 6.75022 29.1999 6.538L28.5073 6.138C28.1398 5.9259 27.7032 5.86841 27.2934 5.97818C26.8836 6.08794 26.5341 6.35597 26.3219 6.72333L25.4999 8.14733L28.9633 10.1473Z" fill="#0D84D4"/>
<path d="M24.8326 9.302L17.6712 21.706C17.4227 22.136 17.2779 22.6182 17.2486 23.114L17.1219 25.2267C17.0826 25.8847 17.8112 26.3053 18.3612 25.942L20.1279 24.776C20.5426 24.5024 20.8877 24.1358 21.1359 23.7053L28.2972 11.3013L24.8332 9.30133L24.8326 9.302Z" fill="#0D84D4"/>
</svg>
