<svg width="32" height="32" viewBox="0 0 32 32" fill="none" xmlns="http://www.w3.org/2000/svg">
<path d="M26.2 3.50665L16.8667 1.42665C16.2952 1.30652 15.7049 1.30652 15.1334 1.42665L5.80002 3.50665C4.91108 3.70394 4.11605 4.19862 3.54633 4.90895C2.97661 5.61928 2.66631 6.50274 2.66669 7.41331V12.84C2.6499 16.6244 3.77808 20.3254 5.90306 23.457C8.02804 26.5885 11.0505 29.0042 14.5734 30.3866C15.026 30.5726 15.5107 30.6677 16 30.6666C16.4879 30.6655 16.9714 30.5751 17.4267 30.4C20.9485 29.012 23.9693 26.5932 26.0938 23.46C28.2182 20.3269 29.3473 16.6254 29.3334 12.84V7.41331C29.3337 6.50274 29.0234 5.61928 28.4537 4.90895C27.884 4.19862 27.089 3.70394 26.2 3.50665ZM22.3334 13.0133L15.92 19.32C15.6702 19.5683 15.3323 19.7077 14.98 19.7077C14.6278 19.7077 14.2898 19.5683 14.04 19.32L11 16.3333C10.875 16.2094 10.7759 16.0619 10.7082 15.8994C10.6405 15.7369 10.6056 15.5627 10.6056 15.3866C10.6056 15.2106 10.6405 15.0364 10.7082 14.8739C10.7759 14.7114 10.875 14.5639 11 14.44C11.2498 14.1916 11.5878 14.0523 11.94 14.0523C12.2923 14.0523 12.6302 14.1916 12.88 14.44L14.9867 16.5066L20.4667 11.1733C20.5919 11.0499 20.7402 10.9523 20.9031 10.8862C21.066 10.82 21.2403 10.7866 21.4161 10.7879C21.5919 10.7891 21.7658 10.825 21.9277 10.8934C22.0897 10.9618 22.2366 11.0615 22.36 11.1866C22.4835 11.3118 22.581 11.4601 22.6472 11.623C22.7133 11.7859 22.7467 11.9603 22.7455 12.1361C22.7442 12.3119 22.7084 12.4857 22.64 12.6477C22.5715 12.8096 22.4719 12.9565 22.3467 13.08L22.3334 13.0133Z" fill="#0D84D4"/>
</svg>
