<svg width="10" height="9" viewBox="0 0 10 9" fill="none" xmlns="http://www.w3.org/2000/svg">
<path fill-rule="evenodd" clip-rule="evenodd" d="M8.36535 5.43399C8.1895 5.29251 7.98358 5.19293 7.76331 5.14283C7.54303 5.09274 7.31419 5.09345 7.09423 5.14491C6.76374 5.28184 6.55019 5.79914 6.33664 6.05779C6.29161 6.11979 6.22544 6.16328 6.15056 6.18009C6.07567 6.19689 5.9972 6.18587 5.92989 6.14908C4.71995 5.67639 3.70576 4.80956 3.05207 3.68938C2.99631 3.61947 2.96992 3.53072 2.97846 3.4418C2.98699 3.35288 3.02979 3.27073 3.09783 3.21265C3.336 2.97746 3.51088 2.68617 3.60628 2.3657C3.62746 2.01222 3.54627 1.66012 3.37239 1.35139C3.23797 0.918563 2.98214 0.53316 2.63514 0.240722C2.45617 0.160432 2.25772 0.133511 2.06375 0.163208C1.86978 0.192904 1.68857 0.277949 1.54198 0.408083C1.28748 0.627094 1.08548 0.900257 0.950849 1.20746C0.816217 1.51465 0.752383 1.84806 0.764049 2.18313C0.764835 2.37129 0.788741 2.55864 0.835232 2.741C0.953298 3.17913 1.13486 3.59772 1.37419 3.98353C1.54685 4.27906 1.73525 4.56516 1.93857 4.84062C2.59932 5.74537 3.4299 6.51356 4.3842 7.10253C4.86308 7.40183 5.3749 7.64517 5.90955 7.82776C6.46493 8.07888 7.07814 8.17527 7.68403 8.1067C8.02925 8.05458 8.35633 7.91862 8.6365 7.7108C8.91667 7.50298 9.14134 7.22965 9.29073 6.91488C9.3785 6.72473 9.40515 6.51215 9.367 6.3063C9.27548 5.88536 8.7111 5.63685 8.36535 5.43399Z" fill="#0D84D4"/>
</svg>
