<svg width="17" height="14" viewBox="0 0 17 14" fill="none" xmlns="http://www.w3.org/2000/svg">
<path d="M1.85595 6.36099C1.85595 6.36099 8.6225 3.48227 10.9693 2.4686C11.8689 2.06317 14.9197 0.76567 14.9197 0.76567C14.9197 0.76567 16.3278 0.198064 16.2104 1.57659C16.1713 2.14426 15.8584 4.13096 15.5455 6.2799C15.0761 9.32084 14.5677 12.6456 14.5677 12.6456C14.5677 12.6456 14.4894 13.5781 13.8245 13.7403C13.1596 13.9025 12.0644 13.1727 11.8689 13.0105C11.7124 12.8889 8.93539 11.0643 7.91846 10.1723C7.64466 9.92902 7.33177 9.4425 7.95754 8.87484C9.36563 7.53683 11.0475 5.87447 12.0644 4.82028C12.5338 4.33371 13.0031 3.19844 11.0475 4.57697C8.27048 6.56373 5.53257 8.42884 5.53257 8.42884C5.53257 8.42884 4.90675 8.83427 3.73337 8.46935C2.55994 8.10449 1.19099 7.61791 1.19099 7.61791C1.19099 7.61791 0.252328 7.00974 1.85595 6.36099Z" fill="#0D84D4"/>
</svg>
