<svg width="18" height="19" viewBox="0 0 18 19" fill="none" xmlns="http://www.w3.org/2000/svg">
<path d="M0 18.2801L1.29146 13.4825C0.24993 11.6135 -0.0809746 9.43261 0.359468 7.33995C0.79991 5.2473 1.98215 3.38325 3.68926 2.08988C5.39636 0.7965 7.51382 0.160549 9.65306 0.29872C11.7923 0.436892 13.8099 1.33992 15.3355 2.84209C16.8611 4.34427 17.7925 6.34483 17.9587 8.47666C18.1248 10.6085 17.5147 12.7286 16.2402 14.448C14.9658 16.1673 13.1124 17.3706 11.0203 17.837C8.92819 18.3033 6.73763 18.0015 4.8506 16.9869L0 18.2801ZM5.08448 15.1916L5.38447 15.3691C6.75128 16.1772 8.3477 16.5116 9.92494 16.3202C11.5022 16.1288 12.9717 15.4223 14.1044 14.3109C15.2371 13.1995 15.9694 11.7456 16.1871 10.1757C16.4049 8.60586 16.096 7.00822 15.3084 5.63178C14.5208 4.25535 13.2989 3.17744 11.833 2.56602C10.3671 1.95461 8.73968 1.84404 7.20423 2.25154C5.66878 2.65905 4.3116 3.56174 3.34419 4.81894C2.37678 6.07614 1.85348 7.61724 1.85584 9.20206C1.85455 10.5161 2.2189 11.8048 2.90832 12.9246L3.09645 13.2339L2.37445 15.9117L5.08448 15.1916Z" fill="#0D84D4"/>
</svg>
